<?xml version="1.0" encoding="UTF-8"?>
<svg width="23px" height="22px" viewBox="0 0 23 22" version="1.1" xmlns="http://www.w3.org/2000/svg" fill="#b67086" class="github-svg" xmlns:xlink="http://www.w3.org/1999/xlink">
        <g id="Artboard" transform="translate(-754.000000, -1609.000000)">
            <path d="M39.7712521,40.8072434 C45.0425469,35.4397345 47.6781943,29.1706329 47.6781943,21.9999385 L1411.80709,19.0452754 C1412.58409,19.0138148 1413.29125,19.3037763 1413.92859,19.9151599 C1414.55671,20.5265436 1414.87077,21.2201179 1414.87077,21.995883 L1414.87077,1640.84359 C1406.98861,1639.81972 1399.92429,1642.39183 1393.6778,1648.55993 C1387.43131,1654.72802 1384.90154,1661.628 1386.08849,1669.25987 L23.0197132,1669.19825 C22.2693453,1669.23933 21.5869287,1668.95328 20.9724634,1668.3401 C20.3579981,1667.73751 20.0338436,1667.03644 20,1666.23688 L20,48.3186317 C27.9095399,48.6785483 34.4999573,46.1747522 39.7712521,40.8072434 Z" id="Rectangle" fill="#302231" fill-rule="nonzero"></path>
            <path d="M765.498941,1609 C759.149391,1609 754,1614.04946 754,1620.27873 C754,1625.26172 757.294791,1629.48865 761.864575,1630.98001 C762.439946,1631.08387 762.649621,1630.73561 762.649621,1630.4365 C762.649621,1630.16855 762.639737,1629.45957 762.634089,1628.51863 C759.435311,1629.19993 758.760398,1627.0065 758.760398,1627.0065 C758.237269,1625.70345 757.483287,1625.35658 757.483287,1625.35658 C756.439148,1624.65728 757.562356,1624.67113 757.562356,1624.67113 C758.716627,1624.75075 759.323767,1625.83362 759.323767,1625.83362 C760.34955,1627.55693 762.015654,1627.05912 762.6708,1626.7704 C762.775285,1626.04202 763.072501,1625.5449 763.40078,1625.26311 C760.847264,1624.97854 758.162436,1624.01061 758.162436,1619.68883 C758.162436,1618.45779 758.610731,1617.45039 759.346358,1616.66247 C759.227754,1616.37721 758.833113,1615.22996 759.459314,1613.67766 C759.459314,1613.67766 760.424384,1613.3744 762.621382,1614.83392 C763.538445,1614.58328 764.522576,1614.45865 765.500353,1614.45381 C766.477424,1614.45865 767.460849,1614.58328 768.379324,1614.83392 C770.57491,1613.3744 771.538568,1613.67766 771.538568,1613.67766 C772.166181,1615.22996 771.77154,1616.37721 771.653642,1616.66247 C772.390681,1617.45039 772.835446,1618.45779 772.835446,1619.68883 C772.835446,1624.02168 770.146383,1624.97508 767.585101,1625.2541 C767.997391,1625.60237 768.365205,1626.29058 768.365205,1627.3423 C768.365205,1628.85028 768.351085,1630.06678 768.351085,1630.4365 C768.351085,1630.73838 768.558642,1631.08941 769.141778,1630.97932 C773.708033,1629.48449 777,1625.26034 777,1620.27873 C777,1614.04946 771.850609,1609 765.498941,1609" id="Fill-51"></path>
    </g>
</svg>