<?xml version="1.0" encoding="UTF-8"?>
<svg width="123px" height="100px" viewBox="0 0 123 100" version="1.1" xmlns="http://www.w3.org/2000/svg" xmlns:xlink="http://www.w3.org/1999/xlink">
    <defs>
        <linearGradient x1="69.3731724%" y1="37.3441655%" x2="-9.96820174%" y2="80.8506211%" id="linearGradient-1">
            <stop stop-color="#A64A32" offset="0%"></stop>
            <stop stop-color="#FA7474" offset="100%"></stop>
        </linearGradient>
    </defs>
    <g id="Website" stroke="none" stroke-width="1" fill="none" fill-rule="evenodd">
        <g id="Mango">
            <path d="M120.094621,79.829777 C111.89538,88.0126964 104.165637,93.1791729 96.9053909,95.3292066 C89.6451448,97.4792403 82.767714,98.8200273 76.2730983,99.3515677 C65.9002418,99.1045386 57.5176424,98.1897699 51.1253004,96.6072617 C41.5367872,94.2334994 27.2467137,88.4036828 22.9252417,85.0256283 C20.0442604,82.7735919 15.8565173,78.9333628 10.3620124,73.5049411 C6.06864749,68.5951134 3.42502871,64.4908671 2.43115605,61.1922022 C0.94034706,56.2442049 0.375027784,53.8531565 0.375027784,52.1123142 C0.375027784,50.3714719 1.17765057,45.5019431 2.43115605,42.5439953 C3.26682637,40.5720301 4.68857638,37.5371058 6.69640606,33.4392222 C8.01653388,30.4707962 10.7958921,27.0530598 15.0344807,23.1860128 C19.2730694,19.3189659 25.970718,15.629991 35.1274268,12.1190881 C42.8995468,10.6633111 51.2686794,10.6633111 60.2348245,12.1190881 C69.2009697,13.5748652 80.6529142,18.2523213 94.5906582,26.1514566 C103.689567,32.1638875 110.043196,37.9938049 113.651545,43.6412086 C117.259895,49.2886123 119.407587,53.9532406 120.094621,57.6350933 C121.35195,61.7077882 121.980614,64.5174638 121.980614,66.0641204 C121.980614,68.3841053 121.980614,68.6325356 121.980614,73.5049411 C121.980614,76.7532114 121.35195,78.8614901 120.094621,79.829777 Z" id="Path-13" fill="url(#linearGradient-1)"></path>
            <polygon id="Path-62" fill="#FFA986" points="37.629985 29.6826211 12.7283678 19.4926519 21.8449588 7.51036378 44.2455001 20.4630696"></polygon>
            <polygon id="Path-63" fill-opacity="0.143150063" fill="#000000" points="12.7283678 19.4926519 12.7283678 25.4874838 36.3675037 32.2425952 37.629985 29.6826211"></polygon>
            <polygon id="Path" fill="#BE503F" points="13.0533678 19.4926519 13.6840237 28.2690348 36.3675037 32.2425952 35.3658929 29.25"></polygon>
            <polygon id="Path-42" fill="#BE503F" points="25.6325011 51.7635876 7.16761442 57.1086661 12.7283678 69.086324"></polygon>
            <path d="M24.9057598,51.7635876 C19.9571579,51.740071 16.0928564,51.9963306 13.3128554,52.5323664 C10.5328544,53.0684023 6.91599849,53.954084 2.46228763,55.1894115 L7.16761442,57.1086661 L24.9057598,51.7635876 Z" id="Path-43" fill="#FFA986"></path>
            <path d="M12.7283678,69.086324 L7.16761442,57.1086661 L2.46228763,55.1894115 C3.14067618,59.5634559 4.09449445,62.6403598 5.32374244,64.4201232 C6.55299043,66.1998866 8.59692209,68.3125525 11.4555374,70.7581208 L12.7283678,69.086324 Z" id="Path-44" fill="#DB6856"></path>
            <path d="M108.419269,88.7933404 C90.4741625,70.9941733 76.4366018,60.0947207 66.306587,56.0949824 C51.1115649,50.095375 46.1908092,48.3678791 39.3237599,47.225802 C32.4567105,46.083725 29.9284318,47.8213429 19.8466165,49.0905339 C13.1254064,49.9366612 6.63487681,51.3638016 0.375027784,53.3719551 L0.375027784,55.1894115 C11.2287598,52.263045 19.0857274,50.7998617 23.9459304,50.7998617 C26.8674474,50.7998617 31.6990711,52.0754683 34.9324729,52.4494554 C38.1559228,52.8222915 41.7285805,52.8222915 45.6504461,52.4494554 L58.0228397,56.4748359 C60.3132412,58.382406 63.9543093,60.5487161 68.9460439,62.9737662 C73.9377786,65.3988163 80.1450296,68.6164176 87.5677971,72.6265703 L108.419269,89.9869671 L108.419269,88.7933404 Z" id="Path-14" fill="#B64E3D"></path>
            <polygon id="Path-61" fill="#FFA986" points="70.1130224 4.36560975 54.5528568 4.36560975 51.0011429 21.7323659 67.1413316 24.5156742"></polygon>
            <polygon id="Path-40" fill="#FFA986" points="29.4063803 48.185681 4.54826838 41.5105522 10.0980839 25.4874838 23.9459304 28.2690348 29.4063803 47.225802"></polygon>
            <polygon id="Path-45" fill="#FFA986" points="36.3675037 82.717515 53.9883086 88.1955736 58.0987053 82.7313773 37.629985 77.3853344"></polygon>
            <polygon id="Path-46" fill="#BE503F" points="36.3675037 83.1659617 34.5026917 88.1955736 52.7733843 95.086445 53.9883086 88.1955736"></polygon>
            <path d="M32.2349608,88.1955736 L32.2349608,84.617701 L37.629985,77.3853344 C35.6466725,83.3891235 34.368962,86.6384029 33.7968533,87.1331726 C33.2247446,87.6279423 32.7041138,87.9820759 32.2349608,88.1955736 Z" id="Path-47" fill="#BE503F"></path>
            <polygon id="Path-48" fill="#FFA986" points="32.2349608 84.617701 16.4000578 77.3853344 23.9459304 71.9784853 37.629985 77.3853344"></polygon>
            <path d="M32.2349608,87.8753271 C27.7802328,86.0155706 24.7232071,84.6909961 23.0638839,83.9016037 C21.4045606,83.1122112 19.1832853,81.2443744 16.4000578,78.2980932 L16.9773244,77.3853344 L32.2349608,83.9016037 L32.2349608,87.8753271 Z" id="Path-49" fill="#BE503F"></path>
            <polygon id="Path-50" fill="#DB6856" points="78.3680253 43.2606348 92.9605068 24.5156742 74.5057857 16.1046074 62.9956987 35.4357099"></polygon>
            <polygon id="Path-51" fill="#FFA986" points="74.5057857 16.1046074 92.9605068 24.5156742 95.5124146 15.8648052 79.4810781 7.21393625"></polygon>
            <polygon id="Path-52" fill="#BE503F" points="55.890343 8.5431806 57.1351077 33.8820504 66.2744186 26.6051365 62.9956987 1.86059119"></polygon>
            <polygon id="Path-53" fill="#DB6856" points="57.1351077 33.8820504 39.3237599 32.0462012 39.006587 5.10325344 55.890343 8.5431806"></polygon>
            <polygon id="Path-54" fill="#FFA986" points="39.006587 5.10325344 55.890343 8.5431806 62.9956987 1.86059119 45.8832697 0.188038893"></polygon>
            <polygon id="Path-55" fill="#DB6856" points="79.4810781 43.2606348 95.5124146 27.5906975 110.322561 43.2606348 95.5124146 56.0949824"></polygon>
            <polygon id="Path-56" fill="#FFA986" points="95.5124146 27.5906975 110.322561 43.2606348 114.477224 41.5105522 104.994819 24.5156742"></polygon>
            <polygon id="Path-57" fill="#DB6856" points="119.238262 70.1529678 110.322561 50.8417742 98.6646196 55.1894115 110.322561 68.1735601"></polygon>
            <polygon id="Path-58" fill="#BE503F" points="98.6646196 55.1894115 108.419269 45.4232778 114.477224 43.2606348 110.322561 50.8417742"></polygon>
            <path d="M110.322561,50.8417742 L119.238262,70.1529678 C121.578051,66.3244013 122.492169,63.7579935 121.980614,62.4537445 C121.213282,60.497371 120.14871,50.152716 118.332621,48.185681 C117.121895,46.8743244 115.836763,45.2326423 114.477224,43.2606348 L110.322561,50.8417742 Z" id="Path-59" fill="#FFA986"></path>
            <path d="M47.448465,54.1493682 C44.2476757,52.5588478 41.4337164,51.7635876 39.006587,51.7635876 C36.5794576,51.7635876 32.5668718,51.7635876 26.9688297,51.7635876 L14.9496445,58.9617857 L32.2349608,62.4537445 L47.448465,54.1493682 Z" id="Path-37" fill="#FFA986"></path>
            <polygon id="Path-38" fill="#BE503F" points="47.448465 54.1493682 32.2349608 62.4537445 31.1990548 77.3853344 37.629985 75.4759937"></polygon>
            <polygon id="Path-39" fill="#DB6856" points="32.2349608 62.4537445 15.6568999 58.9617857 15.6568999 74.1608634 31.1990548 77.3853344"></polygon>
            <polygon id="Path-15" fill="#BE503F" points="70.1130224 56.9645051 73.8224721 43.2606348 80.7569801 33.8820504 77.5283812 44.4833578"></polygon>
            <polygon id="Path-16" fill="#BE503F" points="70.1130224 56.9645051 78.3680253 49.0326659 86.0581347 37.487099 78.0855785 44.5428725"></polygon>
            <polygon id="Path-17" fill="#FFA986" points="78.3680253 49.0326659 94.63427 60.7910089 103.375341 50.2155618 86.0581347 37.487099"></polygon>
            <polygon id="Path-18" fill="#DB6856" points="78.3680253 49.139054 68.8349402 58.9617857 86.0581347 69.086324 94.63427 60.7910089"></polygon>
            <path d="M68.8349402,58.9617857 C64.461599,56.3843631 61.2366532,54.6342841 59.1601027,53.7115488 C57.0835522,52.7888136 54.0532377,51.8366101 50.069159,50.8549384 L57.1351077,36.075 L73.8224721,43.2606348 L68.8349402,58.9617857 Z" id="Path-19" fill="#DB6856"></path>
            <polygon id="Path-20" fill="#FFA986" points="57.1351077 36.075 73.8224721 43.2606348 80.7569801 33.8820504 64.7522181 25.4874838"></polygon>
            <polygon id="Path-21" fill="#BE503F" points="87.7877526 69.086324 101.612016 72.6427531 109.541487 60.7910089 96.5667668 59.112689"></polygon>
            <polygon id="Path-27" fill="#BE503F" points="86.0581347 71.9784853 90.8716833 82.717515 78.3680253 93.4842693 78.3680253 88.8883067"></polygon>
            <polygon id="Path-22" fill="#DB6856" points="87.7877526 70.1529678 103.375341 84.617701 107.198195 83.1659617 101.612016 72.6427531"></polygon>
            <polygon id="Path-23" fill="#FFA986" points="101.612016 72.6427531 109.541487 60.7910089 116.516532 72.6427531 107.198195 83.1659617"></polygon>
            <polygon id="Path-24" fill="#FFA986" points="67.1413316 61.6650837 65.56463 72.6427531 84.1068765 79.8511579 85.1410837 70.7581208"></polygon>
            <polygon id="Path-25" fill="#BE503F" points="67.1413316 61.6650837 58.8500658 81.2583535 58.8500658 84.617701 65.56463 72.6427531"></polygon>
            <polygon id="Path-26" fill="#DB6856" points="65.56463 73.1413924 84.1068765 79.8511579 75.4350013 92.2936376 58.8500658 85.6001143"></polygon>
            <polygon id="Path-28" fill="#FFA986" points="86.0581347 72.6427531 103.375341 85.9194834 103.375341 88.1955736 90.8716833 82.717515"></polygon>
            <polygon id="Path-29" fill="#DB6856" points="90.8716833 83.1659617 78.3680253 93.4842693 86.9324923 97.2677836 94.716738 95.8068957 103.375341 88.1955736"></polygon>
            <polygon id="Path-30" fill="#BE503F" points="57.270472 87.8753271 75.3528568 94.2521771 72.8672308 98.2753271 63.0875168 98.2753271 54.5528568 95.1932373"></polygon>
            <polygon id="Path-31" fill="#DB6856" points="55.2943415 83.9016037 37.629985 78.6029127 40.8352855 64.4201232 58.8500658 70.7581208"></polygon>
            <polygon id="Path-32" fill="#BE503F" points="67.1413316 61.6650837 58.8500658 70.7581208 55.890343 83.1659617 58.8500658 81.2583535"></polygon>
            <path d="M40.8352855,64.4201232 L58.8500658,70.7581208 L67.1413316,61.6650837 C64.3231584,59.7147604 61.2185488,58.1479008 57.8275029,56.9645051 C54.436457,55.7811094 51.5626407,54.8427304 49.206054,54.1493682 L40.8352855,64.4201232 Z" id="Path-33" fill="#FFA986"></path>
            <polygon id="Path-34" fill="#BE503F" points="48.886827 49.139054 39.006587 36.075 43.946707 21.7323659 55.890343 35.4357099"></polygon>
            <path d="M43.946707,21.7323659 C43.2046481,21.7323659 38.6392583,20.4630696 35.863247,20.4630696 C34.0125727,20.4630696 30.9753842,20.4630696 26.7516815,20.4630696 L21.8449588,33.8820504 L39.006587,36.075 C42.7947063,26.5132439 44.441413,21.7323659 43.946707,21.7323659 Z" id="Path-35" fill="#FFA986"></path>
            <path d="M39.006587,36.075 L48.886827,49.139054 C43.9482658,48.2536738 40.6548525,47.7134534 39.006587,47.5183929 C37.3583215,47.3233323 34.3343478,47.3233323 29.9346657,47.5183929 L21.8449588,33.8820504 L39.006587,36.075 Z" id="Path-36" fill="#DB6856"></path>
            <path d="M29.4063803,48.185681 L4.54826838,41.5105522 C2.51249597,44.074547 1.49460977,46.2995899 1.49460977,48.185681 C1.49460977,50.0717721 1.49460977,52.0596678 1.49460977,54.1493682 C8.13528647,51.4126904 12.8560499,50.0443515 15.6568999,50.0443515 C18.45775,50.0443515 23.0409101,49.4247947 29.4063803,48.185681 Z" id="Path-41" fill="#BE503F"></path>
            <polygon id="Path-60" fill="#DB6856" points="67.1413316 24.5156742 70.1130224 4.36560975 73.8224721 16.1046074"></polygon>
            <path d="M31.1990548,12.8447781 C32.4675521,11.0989243 33.8564982,9.88172514 35.3658929,9.1931806 C36.8752876,8.50463605 38.1945766,8.16036378 39.3237599,8.16036378 L39.3237599,18.5213208 L31.1990548,12.8447781 Z" id="Path-64" fill="#FFA986"></path>
        </g>
    </g>
</svg>