<?xml version="1.0" encoding="UTF-8"?>
<svg width="123px" height="100px" viewBox="0 0 123 100" version="1.1" xmlns="http://www.w3.org/2000/svg" xmlns:xlink="http://www.w3.org/1999/xlink">
    <defs>
        <linearGradient x1="83.7407134%" y1="40.0803542%" x2="3.30016783%" y2="56.6339324%" id="linearGradient-1">
            <stop stop-color="#A64A32" offset="0%"></stop>
            <stop stop-color="#DB6856" offset="60.2534794%"></stop>
            <stop stop-color="#DB6856" offset="99.9493792%"></stop>
        </linearGradient>
    </defs>
    <g id="Page-1" stroke="none" stroke-width="1" fill="none" fill-rule="evenodd">
        <g id="Mango">
            <path d="M119.238262,78.2980932 C116.359486,82.4437978 107.79576,92.1041561 96.9053909,95.3292066 C89.6451448,97.4792403 82.767714,98.8200273 76.2730983,99.3515677 C65.9002418,99.1045386 57.5176424,98.1897699 51.1253004,96.6072617 C41.5367872,94.2334994 27.2467137,88.4036828 22.9252417,85.0256283 C20.0442604,82.7735919 15.8565173,78.9333628 10.3620124,73.5049411 C6.06864749,68.5951134 3.42502871,64.4908671 2.43115605,61.1922022 C0.94034706,56.2442049 0.375027784,53.8531565 0.375027784,52.1123142 C0.375027784,50.3714719 1.17765057,45.5019431 2.43115605,42.5439953 C3.26682637,40.5720301 4.68857638,37.5371058 6.69640606,33.4392222 C8.01653388,30.4707962 10.7958921,27.0530598 15.0344807,23.1860128 C19.2730694,19.3189659 25.970718,15.629991 35.1274268,12.1190881 C42.8995468,10.6633111 51.2686794,10.6633111 60.2348245,12.1190881 C69.2009697,13.5748652 80.6529142,18.2523213 94.5906582,26.1514566 C103.689567,32.1638875 110.043196,37.9938049 113.651545,43.6412086 C117.259895,49.2886123 119.407587,53.9532406 120.094621,57.6350933 C121.35195,61.7077882 121.980614,64.5174638 121.980614,66.0641204 C121.980614,68.3841053 122.117037,74.1523886 119.238262,78.2980932 Z" id="Path-13" fill="url(#linearGradient-1)"></path>
            <path d="M31.1990548,13.4947781 C32.4675521,11.7489243 33.8564982,10.5317251 35.3658929,9.8431806 C36.8752876,9.15463605 38.1945766,8.81036378 39.3237599,8.81036378 L39.3237599,19.1713208 L31.1990548,13.4947781 Z" id="Path-64" fill="#FFA986"></path>
            <g id="Group-5" transform="translate(13.053368, 7.771878)">
                <polygon id="Path" fill="#DB6856" points="0.210418959 11.3911323 0.630655926 20.4971571 23.3141359 24.4707175 22.3125251 21.4781223"></polygon>
                <path d="M24.5766172,21.9107434 L0.349658342,11.9258079 C0.2570439,11.8083987 0.210630773,11.6774203 0.210418959,11.5328725 C0.210418959,11.3883247 0.25641268,11.2292471 0.348400122,11.0556397 L8.40001476,0.269445137 C8.55777073,0.0842373406 8.73135018,-0.00549110842 8.92075311,0.000259790515 C9.11015604,0.00601068945 9.30053723,0.0537324679 9.4918967,0.143425126 L31.1921323,12.6911919 L24.5766172,21.9107434 Z" id="Path-62" fill="#FFA986"></path>
            </g>
            <g id="Group-4" transform="translate(51.001143, 4.365610)">
                <polygon id="Path-60" fill="#BE503F" points="15.8978506 26.3271602 14.8631067 19.9929831 18.5162309 0 19.0281794 0.46953308 23.6462657 12.4675601"></polygon>
                <path d="M18.8010636,0.15699093 C18.6488697,0.0443321458 18.4689423,-0.00799816407 18.2612815,2.15435308e-14 L3.55171394,2.15435308e-14 L0,17.3667561 L14.8631067,22.7993791 C15.1486855,22.8115802 15.3733065,22.7795358 15.5369697,22.7032459 C15.700633,22.626956 15.8157237,22.5006474 15.882242,22.32432 L19.0282739,0.567668597 C19.0289943,0.406542269 18.9532576,0.269649714 18.8010636,0.15699093 Z" id="Path-61" fill="#FFA986"></path>
            </g>
            <g id="Group-12" transform="translate(16.400058, 71.978485)">
                <path d="M15.8349031,16.2170883 L15.8349031,11.7608601 L21.2299272,5.40684906 C20.0036945,11.6489931 19.1045238,15.0174499 18.5324151,15.5122196 C17.9603065,16.0069893 17.0611358,16.2419455 15.8349031,16.2170883 Z" id="Path-47" fill="#BE503F"></path>
                <path d="M15.8349031,15.8968418 C11.380175,14.0370853 8.32314933,12.7125108 6.66382608,11.9231183 C5.00450284,11.1337259 2.78322747,9.26588903 0,6.31960784 L0.577266581,5.40684906 L15.8349031,11.7608601 L15.8349031,15.8968418 Z" id="Path-49" fill="#DB6856"></path>
                <path d="M15.8349031,11.7608601 C15.7429167,11.7905621 15.5324023,11.7580187 15.2033599,11.6632301 L0.833522887,5.74985461 C0.571660104,5.61718672 0.473408242,5.45757851 0.538767299,5.27102998 C0.604126356,5.08448145 0.810417143,4.85325971 1.15763966,4.57736476 L7.5458726,0 L22.9237021,3.87261223 L16.3126549,11.3805519 C16.08614,11.6043887 15.9268894,11.7311581 15.8349031,11.7608601 Z" id="Path-48" fill="#FFA986"></path>
            </g>
            <g id="Group-8" transform="translate(2.462288, 51.763588)">
                <polygon id="Path-42" fill="#BE503F" points="22.0911567 3.69482223e-14 4.59931522 5.24729313 10.2660802 17.3227364 22.0911567 1.6083675 24.7 3.69482223e-14"></polygon>
                <path d="M10.2660802,17.3227364 L4.70532679,5.24729313 L0,3.42582393 C0.678388557,7.79986826 1.63220683,10.8767721 2.86145482,12.6565355 C4.0907028,14.4362989 6.13463446,16.5489648 8.9932498,18.9945332 L10.2660802,17.3227364 Z" id="Path-44" fill="#DB6856"></path>
                <path d="M22.3533576,3.69482223e-14 C17.4692785,3.69482223e-14 13.6350152,0.256259608 10.8505678,0.768778825 C8.0661204,1.28129804 4.44926447,2.16697974 0,3.42582393 L3.68489304,4.92885398 C4.08004001,5.14114675 4.4201846,5.24729313 4.70532679,5.24729313 C4.99046899,5.24729313 5.47809119,5.13220156 6.16819337,4.90201843 L22.3533576,3.69482223e-14 Z" id="Path-43" fill="#FFA986"></path>
            </g>
            <path d="M122.2,63.5949503 C123.438102,72.9103281 119.478956,81.0713425 110.322561,88.0779934 C96.5879696,98.5879697 83.7722661,99.2531355 76.8867073,99.3515677 C70.0011484,99.45 66.582592,99.037027 67.5482087,98.4232668 C69.2090307,97.367624 75.1445323,95.5926587 76.8867073,94.4510394 C78.6288823,93.3094202 80.4863686,91.8275208 81.1427018,91.6065792 C90.9035172,88.3207927 101.476727,86.5438103 103.032884,84.6534853 C105.619237,81.5117403 107.458946,75.2900816 113.237545,69.086324 C114.579473,67.6456632 117.566958,65.8152052 122.2,63.5949503 Z" id="Path-67" fill="#DB6856"></path>
            <path d="M103.375341,84.617701 C88.7928532,69.6022935 76.4366018,60.0947207 66.306587,56.0949824 C51.1115649,50.095375 46.1908092,48.3678791 39.3237599,47.225802 C32.4567105,46.083725 29.9284318,47.8213429 19.8466165,49.0905339 C13.1254064,49.9366612 6.63487681,51.3638016 0.375027784,53.3719551 L0.955769426,56.0949824 L2.46228763,55.1894115 C11.9245131,52.9055289 19.0857274,51.7635876 23.9459304,51.7635876 C26.8674474,51.7635876 31.6990711,52.0754683 34.9324729,52.4494554 C38.1559228,52.8222915 41.6281119,53.1297914 45.3490402,53.3719551 L57.4984923,57.3448919 C60.1384587,58.6724247 63.9543093,60.5487161 68.9460439,62.9737662 C73.9377786,65.3988163 80.1450296,68.6164176 87.5677971,72.6265703 L103.376392,85.8443503 L103.375341,84.617701 Z" id="Path-14" fill="#B44F3E"></path>
            <path d="M30.1383817,47.8299602 L4.54826838,41.5105522 L9.65186954,26.7757649 C9.81181941,26.4499492 10.0288481,26.1980089 10.3029556,26.0199441 C10.5770631,25.8418793 10.9000851,25.7429936 11.2720217,25.7232871 L23.9459304,28.2690348 L30.4307847,46.2974194 L30.1383817,47.8299602 Z" id="Path-40" fill="#FFA986"></path>
            <g id="Group-11" transform="translate(34.502692, 77.385334)">
                <polygon id="Path-46" fill="#DB6856" points="1.86481193 5.78062733 0 10.8102392 18.2706925 17.7011106 19.4856168 10.4899927"></polygon>
                <path d="M1.98627372,5.78062733 C2.07521184,5.89639505 2.26900548,5.96326725 2.56765464,5.98124394 L18.7544522,10.6015385 C19.0565142,10.6435408 19.2791266,10.6435408 19.4222894,10.6015385 C19.5654522,10.5595362 19.7355191,10.4332961 19.93249,10.2228183 L24.8597624,3.74585133 L3.12729328,0 L1.98627372,5.22448022 C1.8973356,5.47947725 1.8973356,5.66485961 1.98627372,5.78062733 Z" id="Path-45" fill="#FFA986"></path>
            </g>
            <polygon id="Path-50" fill="#DB6856" points="93.0679673 24.1366152 74.8414573 15.5505973 62.9956987 35.4357099 77.5020893 44.7890114"></polygon>
            <path d="M74.8405022,15.9425464 C74.8841221,16.1269497 74.9866486,16.2785493 75.1480818,16.3973453 L91.9784291,24.0680749 C92.3585382,24.2463167 92.636111,24.3212554 92.8111477,24.2928911 C92.9861844,24.2645268 93.0986265,24.126387 93.1484742,23.8784717 L95.4086758,16.2164757 C95.4466928,16.0799859 95.4466928,15.9688762 95.4086758,15.8831466 C95.3706588,15.7974169 95.2914456,15.729898 95.1710362,15.6805898 L79.9378347,7.4604124 C79.7879375,7.39693438 79.6631623,7.37495034 79.5635093,7.39446028 C79.4638563,7.41397022 79.3660125,7.4795383 79.269978,7.59116453 L74.9085763,15.384835 C74.8195736,15.5722393 74.7968822,15.7581431 74.8405022,15.9425464 Z" id="Path-51" fill="#FFA986"></path>
            <polygon id="Path-52" fill="#BE503F" points="55.7452966 8.16734593 57.1351077 33.8820504 66.3621974 27.1675123 62.8511071 1.90811529"></polygon>
            <polygon id="Path-53" fill="#DB6856" points="57.1351077 33.8820504 39.3237599 32.0462012 39.006587 5.10325344 55.7452966 8.16734593"></polygon>
            <path d="M39.006587,5.10325344 L54.7031534,8.30130044 C55.0947062,8.35534817 55.4377586,8.35534817 55.7323105,8.30130044 C56.0268625,8.24725272 56.2819678,8.13749598 56.4976265,7.97203023 L62.6920583,2.14616513 C62.818821,2.02697141 62.8718372,1.94762146 62.8511071,1.90811529 C62.8303769,1.86860912 62.7192389,1.83719448 62.517693,1.81387137 L46.3163748,0.230326029 C46.1965183,0.230065919 46.0641581,0.249128774 45.9192943,0.287514596 C45.7744305,0.325900417 45.6460005,0.375956117 45.5340043,0.437681694 L39.006587,5.10325344 Z" id="Path-54" fill="#FFA986"></path>
            <g id="Group-2" transform="translate(79.481078, 25.165674)">
                <polygon id="Path-55" fill="#DB6856" points="0 18.7449606 16.952547 2.81475161 30.8414833 18.7449606 16.0313365 31.5793082"></polygon>
                <polygon id="Path-65" fill="#BE503F" points="34.7245675 17.0950407 23.2692968 27.2479134 22.1309379 26.3260999 30.8414833 18.7449606 34.8188968 16.7183977"></polygon>
                <path d="M16.6507987,3.25657595 C16.6237241,3.53722768 16.7503406,3.82915208 17.0306482,4.13234914 L30.8414833,18.7449606 L34.5936425,17.1970299 C34.7154396,17.1206946 34.7880385,17.0149057 34.8114392,16.8796632 C34.83484,16.7444207 34.8031698,16.6136657 34.7164287,16.487398 L26.111623,1.07155579 C25.8200529,0.675539358 25.508713,0.429203979 25.1776034,0.332549653 C24.8464938,0.235895328 24.4732908,0.282405528 24.0579943,0.472080254 L17.168215,2.70634807 C16.8503454,2.79251492 16.6778732,2.97592421 16.6507987,3.25657595 Z" id="Path-56" fill="#FFA986"></path>
            </g>
            <polygon id="Path-57" fill="#DB6856" points="119.256634 69.9807545 110.442594 50.7880939 98.6646196 55.1894115 110.322561 68.1735601"></polygon>
            <polygon id="Path-58" fill="#BE503F" points="98.6646196 55.1894115 108.822248 45.381445 113.203273 42.9203545 113.777934 43.6546111 114.443328 43.4227512 110.515573 50.7880939"></polygon>
            <path d="M110.444637,50.8417742 C110.432604,51.0078472 110.473732,51.1850683 110.568023,51.3734373 L118.983428,69.6010042 C119.106597,69.8541711 119.197665,69.9807545 119.256634,69.9807545 C119.345087,69.9807545 119.437689,69.7604835 119.533208,69.5688745 C121.164812,66.2959274 122.421208,64.8278833 122.421208,62.3736917 C122.421208,59.9195001 122.154697,58.1339593 121.445808,55.1894115 C120.736919,52.2448638 116.130785,45.4093676 114.769569,43.6393721 C114.672781,43.5135193 114.558438,43.4397124 114.477224,43.4242473 C114.423082,43.4139373 114.369642,43.4569128 114.316905,43.553174 L110.649814,50.2446256 C110.525063,50.4766516 110.456671,50.6757011 110.444637,50.8417742 Z" id="Path-59" fill="#FFA986"></path>
            <g id="Group-10" transform="translate(14.949645, 51.568017)">
                <polygon id="Path-38" fill="#BE503F" points="32.8440678 2.11843686 17.2853163 10.8857275 16.2494102 25.8173174 23.8257651 23.9574875 34.5976447 2.70985096"></polygon>
                <polygon id="Path-39" fill="#DB6856" points="17.2853163 10.8857275 0.597350735 7.39376873 0.707255404 22.5928464 16.2494102 25.8173174"></polygon>
                <path d="M32.7643123,2.0456761 C32.4424924,1.86645081 32.0524383,1.76113034 31.5375535,1.63093691 C28.6293271,0.895564726 26.1357901,0.417109295 24.0569425,0.19557062 C21.6100468,-0.0651902065 17.597461,-0.0651902065 12.0191851,0.19557062 L1.65667103,6.40160111 C0.881737862,6.9281275 0.531974555,7.25885004 0.607381105,7.39376873 C0.682787655,7.52868742 0.96379837,7.64007226 1.45041325,7.72792326 L17.2853163,10.8857275 L32.1093838,2.61050286 C32.7605493,2.35343522 32.9788588,2.16515963 32.7643123,2.0456761 Z" id="Path-37" fill="#FFA986"></path>
            </g>
            <polygon id="Path-15" fill="#BE503F" points="68.8349402 58.9617857 73.8224721 43.2606348 80.4598769 34.1813587 77.5020893 44.7890114 77.9781027 44.7890114"></polygon>
            <path d="M68.9460439,58.901245 L78.668182,49.0303449 L85.573379,38.4593952 C86.1201337,38.2251865 86.4258245,38.0606648 86.4904513,37.9658302 C86.5550781,37.8709956 86.4334627,37.7654017 86.1256051,37.6490483 L77.9781027,44.6606249 L68.9460439,58.901245 Z" id="Path-16" fill="#BE503F"></path>
            <path d="M78.6832313,48.8893937 L68.8349402,58.9617857 C72.3583426,60.8640299 75.1306787,62.4092469 77.1519485,63.5974367 C79.1732184,64.7856265 82.1419471,66.6152556 86.0581347,69.086324 L94.9018197,60.497371 L78.6832313,48.8893937 Z" id="Path-18" fill="#DB6856"></path>
            <path d="M78.4990852,49.0425228 C78.517102,49.1298109 78.5816033,49.2047308 78.6925889,49.2672825 L94.1657139,60.4523049 C94.3394193,60.5662372 94.4956047,60.6133245 94.63427,60.5935665 C94.7729353,60.5738086 94.8995602,60.4864248 95.0141446,60.331415 L102.780063,50.9357641 C102.992133,50.685005 103.070788,50.442773 103.016026,50.209068 C102.961263,49.9753629 102.773366,49.7513849 102.452333,49.5371339 L86.6887588,37.9506192 C86.4600546,37.7826735 86.2498465,37.7355815 86.0581347,37.8093432 C85.8664228,37.8831049 85.6721214,38.0674052 85.4752303,38.3622441 L78.5788351,48.716166 C78.5076517,48.846449 78.4810684,48.9552346 78.4990852,49.0425228 Z" id="Path-17" fill="#FFA986"></path>
            <path d="M68.8349402,58.9617857 C64.461599,56.3843631 61.2366532,54.6342841 59.1601027,53.7115488 C57.0835522,52.7888136 54.2285577,51.6221216 50.5951191,50.2114729 L57.1351077,36.075 L73.8224721,43.2606348 L68.8349402,58.9617857 Z" id="Path-19" fill="#DB6856"></path>
            <path d="M57.1351077,36.075 L73.8224721,43.2606348 L80.3327024,34.4558654 C80.4592027,34.2396532 80.4913307,34.0483815 80.4290864,33.8820504 C80.3668422,33.7157192 80.2111182,33.5767142 79.9619147,33.4650352 L65.6314561,25.9486479 C65.3646165,25.8252123 65.1048672,25.7916565 64.8522082,25.8479807 C64.5995492,25.904305 64.3785165,26.0450394 64.1891101,26.2701841 L57.1351077,36.075 Z" id="Path-20" fill="#FFA986"></path>
            <polygon id="Path-21" fill="#BE503F" points="87.4060673 70.1529678 101.799273 72.6427531 109.653484 60.9755108 96.1282996 58.9878589 95.0141446 60.331415 86.1144658 69.086324"></polygon>
            <g id="Group-9" transform="translate(78.368025, 71.978485)">
                <path d="M7.74644053,0.23323214 C8.18697317,0.644030865 9.7936459,1.91235824 12.5664587,4.03821426 C15.221204,6.07355046 19.1355576,9.18601898 24.3095193,13.3756198 C24.5396268,13.5619487 24.663722,13.663955 24.8146781,13.8680735 C24.9153155,14.0041525 24.9795282,14.1545148 25.0073161,14.3191605 L25.0073161,15.7574568 C25.0162649,15.9499997 24.9680384,16.061605 24.8626367,16.0922728 C24.7572349,16.1229407 24.5579666,16.0561143 24.2648319,15.8917937 L13.1644389,11.0285286 C12.9172167,10.9010019 12.7178899,10.7660174 12.5664587,10.6235752 C12.4150275,10.4811329 12.3037314,10.3239331 12.2325704,10.1519758 L7.74644053,0.23323214 Z" id="Path-28" fill="#FFA986"></path>
                <polygon id="Path-27" fill="#BE503F" points="7.74644053 0.23323214 12.503658 10.7390296 5.92559741e-13 21.5057839 5.91171556e-13 16.9098213"></polygon>
                <path d="M12.5664587,10.6235752 L0.521436867,21.0542339 C0.318324745,21.2519403 0.233951263,21.402457 0.268316421,21.5057839 C0.302681578,21.6091109 0.435397348,21.7072518 0.666463729,21.8002068 L8.56446699,25.2892983 L16.3487127,23.8284103 L24.9690926,16.0298634 L12.5664587,10.6235752 Z" id="Path-29" fill="#DB6856"></path>
            </g>
            <polygon id="Path-66" fill="#BE503F" points="58.8500658 81.8089953 53.9249811 87.9868729 52.7733843 95.086445 54.5528568 95.1932373 58.8500658 83.1659617"></polygon>
            <polygon id="Path-22" fill="#DB6856" points="87.7877526 70.1529678 103.375341 84.617701 107.47379 82.7305628 101.799273 72.6427531"></polygon>
            <path d="M101.799273,72.6427531 C101.799273,72.439222 101.950032,72.1205962 102.251551,71.6868756 L109.282568,61.1780003 C109.381158,61.0460137 109.467464,60.9785805 109.541487,60.9757005 C109.615509,60.9728205 109.687795,61.0340834 109.758346,61.1594892 L116.198059,72.101615 C116.310842,72.2552654 116.364527,72.4051732 116.359115,72.5513383 C116.353703,72.6975034 116.288415,72.8609622 116.163251,73.0417147 L107.821016,82.4626093 C107.549364,82.6991766 107.341757,82.8163509 107.198195,82.8141324 C107.054633,82.8117854 106.927349,82.689286 106.816344,82.4466342 L101.999109,73.371957 C101.865885,73.0893521 101.799273,72.8462841 101.799273,72.6427531 Z" id="Path-23" fill="#FFA986"></path>
            <g id="Group-7" transform="translate(54.552857, 83.165962)">
                <path d="M2.58225088,5.02961187 L19.5171807,10.9705233 L18.6203745,14.156365 C18.5771811,14.3551996 18.4361513,14.5453346 18.1972849,14.7267701 C17.8389854,14.9989233 17.6104425,15.1703121 17.2564462,15.1923626 C14.5747927,15.3594033 11.8154581,15.2042058 8.97844241,14.7267701 C5.76692164,14.1863096 2.77410751,13.2864781 0,12.0272756 L2.58225088,5.02961187 Z" id="Path-30" fill="#DB6856"></path>
                <path d="M2.61973748,5.27419851 C2.56712536,5.1949843 2.56712536,5.10003248 2.61973748,4.98934305 L4.29720902,0 L20.0945517,8.22592178 L19.624943,10.6507181 C19.5930725,10.850424 19.528268,10.9726534 19.4305296,11.0174065 C19.3327912,11.0621596 19.1784721,11.0402638 18.9675725,10.9517191 L2.95076271,5.48774341 C2.78269135,5.42459435 2.67234961,5.35341272 2.61973748,5.27419851 Z" id="Path-2" fill="#FFA986"></path>
            </g>
            <g id="Group-6" transform="translate(58.200066, 61.238715)">
                <path d="M7.60398251,10.9730026 L25.9127253,18.1836399 L17.5442758,30.5960953 C17.4449165,30.7774912 17.3143835,30.8845626 17.1526768,30.9173096 C16.9909701,30.9500566 16.803356,30.9074126 16.5898347,30.7893778 L0.455737448,24.1480476 L7.60398251,10.9730026 Z" id="Path-26" fill="#DB6856"></path>
                <polygon id="Path-25" fill="#BE503F" points="8.94126577 1.61835113e-14 0.65 20.0196386 0.455737448 24.1480476 7.60398251 10.9730026"></polygon>
                <path d="M8.94126577,1.84741111e-14 L7.51821074,10.2927361 C7.48905605,10.6406534 7.53355571,10.935344 7.65170973,11.1768079 C7.76986375,11.4182718 7.96123867,11.6056232 8.22583447,11.738862 L25.2405876,18.353445 C25.4475006,18.4139738 25.6089111,18.4139738 25.7248191,18.353445 C25.840727,18.2929161 25.9208648,18.1667761 25.9652323,17.9750249 L26.7000616,9.95755263 C22.8987652,7.44184765 20.1520244,5.74544964 18.4598391,4.8683586 C16.7676539,3.99126756 13.5947961,2.36848136 8.94126577,1.84741111e-14 Z" id="Path-24" fill="#FFA986"></path>
            </g>
            <path d="M55.2943415,83.9016037 L38.5182933,78.8693742 C38.2122149,78.7313492 38.0059164,78.53682 37.8993978,78.2857864 C37.7928791,78.0347529 37.7928791,77.7430965 37.8993978,77.4108172 L40.8352855,64.4201232 L58.8500658,70.7581208 L55.2943415,83.9016037 Z" id="Path-31" fill="#DB6856"></path>
            <polygon id="Path-32" fill="#BE503F" points="67.1413316 61.6650837 58.8500658 70.7581208 55.2943415 83.9016037 58.8500658 81.2583535"></polygon>
            <path d="M40.8352855,64.4201232 L58.8500658,70.7581208 L67.1413316,61.2387149 C64.3231584,59.5726374 61.2185488,58.1479008 57.8275029,56.9645051 C54.436457,55.7811094 51.5626407,54.8427304 49.206054,54.1493682 L40.8352855,64.4201232 Z" id="Path-33" fill="#FFA986"></path>
            <polygon id="Path-34" fill="#BE503F" points="49.1893698 49.725 38.7754097 35.7464035 43.946707 21.7323659 54.3577394 33.6773011 58.6558033 33.8820504 56.7356923 36.7766236 50.5951191 50.2114729"></polygon>
            <path d="M38.8957454,35.7044618 L50.5951191,50.2114729 C45.3479125,48.6237977 41.4850685,47.7261044 39.006587,47.5183929 C36.5281055,47.3106813 33.5720371,47.4145371 30.1383817,47.8299602 L21.8449588,33.8820504 L38.8957454,35.7044618 Z" id="Path-36" fill="#DB6856"></path>
            <path d="M43.946707,21.7323659 C43.2046481,21.7323659 38.6392583,20.4630696 35.863247,20.4630696 C34.0125727,20.4630696 30.9753842,20.4630696 26.7516815,20.4630696 L22.0324202,33.3693781 C21.9754258,33.5539784 21.9754258,33.684533 22.0324202,33.7610419 C22.0894147,33.8375508 22.2366846,33.9046902 22.4742301,33.96246 L38.2741111,35.9814027 C38.5080225,36.004378 38.7093021,35.9705133 38.8779499,35.8798085 C39.1309216,35.7437514 39.1709443,35.6598412 39.2515924,35.4556788 C42.8655761,26.3068035 44.4306143,21.7323659 43.946707,21.7323659 Z" id="Path-35" fill="#FFA986"></path>
            <path d="M30.1383817,47.8299602 L4.54826838,41.5105522 C2.51249597,44.074547 1.49460977,46.2995899 1.49460977,48.185681 C1.49460977,50.0717721 1.12141578,51.8005302 0.375027784,53.3719551 C6.70873588,51.5441834 11.3546172,50.3285317 14.3126717,49.725 C17.2707262,49.1214683 22.5459629,48.4897884 30.1383817,47.8299602 Z" id="Path-41" fill="#DB6856"></path>
        </g>
    </g>
</svg>