<?xml version="1.0" standalone="no"?>
<!DOCTYPE svg PUBLIC "-//W3C//DTD SVG 20010904//EN"
 "http://www.w3.org/TR/2001/REC-SVG-20010904/DTD/svg10.dtd">
<svg version="1.0" xmlns="http://www.w3.org/2000/svg"
 width="540.000000pt" height="540.000000pt" viewBox="0 0 540.000000 540.000000"
 preserveAspectRatio="xMidYMid meet">
<metadata>
Created by potrace 1.11, written by Peter Selinger 2001-2013
</metadata>
<g transform="translate(0.000000,540.000000) scale(0.100000,-0.100000)"
fill="#000000" stroke="none">
<path d="M2620 5288 c-380 -76 -573 -144 -739 -258 -132 -90 -312 -292 -424
-475 -44 -71 -150 -314 -284 -650 -53 -132 -114 -278 -136 -325 -64 -138 -96
-265 -99 -390 -1 -59 10 -232 17 -270 2 -12 7 -55 11 -94 4 -39 8 -78 10 -86
1 -8 3 -30 3 -47 1 -49 21 -41 91 34 56 59 62 64 56 38 -20 -82 -81 -172 -127
-187 -8 -3 -13 -35 -14 -99 -2 -87 -18 -161 -54 -244 -47 -106 -81 -266 -83
-380 -1 -117 49 -265 197 -580 53 -112 52 -106 43 -363 -12 -302 21 -389 183
-492 30 -19 63 -43 74 -53 16 -15 30 -18 68 -13 85 9 143 47 240 155 16 17 32
29 37 26 14 -9 -1 -109 -24 -161 -20 -44 -97 -124 -120 -124 -4 0 -23 -12 -42
-27 l-35 -26 28 -24 c15 -12 48 -35 73 -50 82 -49 171 -31 324 66 34 21 71 41
83 45 41 13 107 99 133 172 19 55 23 85 21 149 -5 155 -4 180 11 215 l16 35
11 -29 c13 -32 47 -164 55 -211 17 -95 17 -95 43 -5 32 111 36 259 9 340 -10
30 -77 147 -149 260 -125 196 -217 363 -217 392 0 8 -4 18 -9 23 -29 32 -111
330 -126 460 -4 28 -8 57 -10 65 -2 8 -7 42 -10 75 -4 33 -8 71 -10 85 -17
116 -24 465 -11 579 18 157 53 262 122 361 48 70 72 92 186 173 161 114 244
209 384 438 43 70 82 128 86 129 13 0 -1 -78 -25 -146 -33 -90 -117 -217 -186
-278 -62 -56 25 -22 149 59 116 74 183 155 337 403 l14 23 62 -53 c34 -29 73
-63 87 -76 14 -13 70 -57 124 -99 89 -67 122 -87 191 -114 55 -21 169 -38 292
-43 29 -1 57 -6 62 -11 10 -12 60 -142 66 -176 27 -137 37 -188 41 -209 10
-56 24 -137 28 -170 31 -230 36 -240 98 -169 38 43 38 43 32 14 -8 -36 -41
-104 -60 -123 -25 -25 -31 -46 -38 -129 -7 -89 -28 -201 -47 -248 -6 -17 -15
-43 -19 -60 -75 -276 -83 -298 -171 -451 -67 -116 -141 -225 -230 -336 -152
-190 -189 -262 -189 -367 1 -90 27 -149 84 -192 59 -45 102 -55 149 -36 67 29
148 155 199 314 13 40 26 73 29 73 10 0 19 -40 19 -85 0 -87 -32 -170 -118
-304 -30 -47 -32 -55 -18 -63 21 -12 178 -222 204 -273 10 -22 27 -67 36 -100
10 -33 19 -68 22 -77 15 -50 99 14 146 109 18 36 33 74 35 84 1 9 14 41 28 71
l24 53 -4 -65 c-8 -135 -55 -281 -107 -337 -19 -20 -19 -22 -1 -31 130 -67
330 -53 511 35 88 43 98 58 133 189 14 53 22 118 24 199 3 105 -3 164 -28 315
-19 107 -61 273 -98 380 -54 161 -52 180 31 297 71 98 72 105 47 233 -33 164
-25 187 33 102 19 -28 38 -51 42 -52 12 0 20 84 14 160 -16 198 -30 270 -92
470 -56 180 -67 284 -51 475 10 112 17 168 23 177 6 10 6 151 -1 219 -18 192
-71 370 -171 572 -76 154 -158 277 -379 566 -41 54 -224 228 -298 284 -42 32
-123 86 -179 119 -185 110 -260 133 -272 84 -17 -67 14 -152 105 -288 65 -97
55 -95 -45 10 -103 108 -145 192 -150 297 -1 25 -6 49 -12 55 -8 8 -103 32
-219 56 -11 2 -31 6 -45 9 -47 11 -115 12 -160 3z"/>
<path d="M2840 2676 c-3 -2 -23 -7 -45 -10 -23 -4 -51 -8 -63 -11 -12 -2 -36
0 -54 5 -73 21 -219 -51 -358 -177 -19 -17 -48 -41 -63 -53 -48 -38 -67 -89
-67 -182 0 -59 6 -95 19 -123 20 -45 73 -95 100 -95 23 0 53 34 84 95 38 74
90 119 172 146 59 19 92 23 210 23 190 1 265 -8 332 -39 66 -30 89 -54 105
-109 30 -105 80 -101 129 8 23 53 27 104 15 184 -9 58 -39 96 -141 178 -98 78
-350 186 -375 160z"/>
</g>
</svg>
