<?xml version="1.0" encoding="UTF-8"?>
<svg width="381px" height="32px" viewBox="0 0 381 32" version="1.1" xmlns="http://www.w3.org/2000/svg" xmlns:xlink="http://www.w3.org/1999/xlink">
    <title>Group 5</title>
    <g id="Website" stroke="none" stroke-width="1" fill="none" fill-rule="evenodd">
        <g id="Artboard" transform="translate(-534.000000, -618.000000)">
            <path d="M39.7712521,40.8072434 C45.0425469,35.4397345 47.6781943,29.1706329 47.6781943,21.9999385 L1411.80709,19.0452754 C1412.58409,19.0138148 1413.29125,19.3037763 1413.92859,19.9151599 C1414.55671,20.5265436 1414.87077,21.2201179 1414.87077,21.995883 L1414.87077,1640.84359 C1406.98861,1639.81972 1399.92429,1642.39183 1393.6778,1648.55993 C1387.43131,1654.72802 1384.90154,1661.628 1386.08849,1669.25987 L23.0197132,1669.19825 C22.2693453,1669.23933 21.5869287,1668.95328 20.9724634,1668.3401 C20.3579981,1667.73751 20.0338436,1667.03644 20,1666.23688 L20,48.3186317 C27.9095399,48.6785483 34.4999573,46.1747522 39.7712521,40.8072434 Z" id="Rectangle" fill="#302231" fill-rule="nonzero"></path>
            <g id="Group-5" transform="translate(536.581009, 621.955360)" stroke="#452F46" stroke-width="6">
                <path d="M-1.42108547e-14,12.0809577 C8.74165619,4.0269859 16.9948297,0 24.7595206,0 C32.5242115,0 39.970732,4.0269859 47.0990821,12.0809577 C54.9823502,20.6936526 62.8450951,25 70.6873167,25 C78.5295384,25 86.3577779,20.6936526 94.1720354,12.0809577" id="Path-4"></path>
                <path d="M94,12.0809577 C102.741656,4.0269859 110.99483,0 118.759521,0 C126.524211,0 133.970732,4.0269859 141.099082,12.0809577 C148.98235,20.6936526 156.845095,25 164.687317,25 C172.529538,25 180.357778,20.6936526 188.172035,12.0809577" id="Path-4"></path>
                <path d="M188,12.0809577 C196.741656,4.0269859 204.99483,0 212.759521,0 C220.524211,0 227.970732,4.0269859 235.099082,12.0809577 C242.98235,20.6936526 250.845095,25 258.687317,25 C266.529538,25 274.357778,20.6936526 282.172035,12.0809577" id="Path-4"></path>
                <path d="M282,12.0809577 C290.741656,4.0269859 298.99483,0 306.759521,0 C314.524211,0 321.970732,4.0269859 329.099082,12.0809577 C336.98235,20.6936526 344.845095,25 352.687317,25 C360.529538,25 368.357778,20.6936526 376.172035,12.0809577" id="Path-4"></path>
            </g>
        </g>
    </g>
</svg>