<?xml version="1.0" encoding="UTF-8"?>
<svg width="474px" height="61px" viewBox="0 0 474 61" version="1.1" xmlns="http://www.w3.org/2000/svg" xmlns:xlink="http://www.w3.org/1999/xlink">
    <defs>
        <linearGradient x1="50%" y1="0%" x2="50%" y2="100%" id="linearGradient-1">
            <stop stop-color="#DF69A6" offset="0%"></stop>
            <stop stop-color="#D7548A" offset="100%"></stop>
        </linearGradient>
        <linearGradient x1="50%" y1="0%" x2="50%" y2="100%" id="linearGradient-2">
            <stop stop-color="#DB6DCC" offset="0%"></stop>
            <stop stop-color="#CD5EB9" offset="100%"></stop>
        </linearGradient>
        <linearGradient x1="50%" y1="0%" x2="50%" y2="100%" id="linearGradient-3">
            <stop stop-color="#FF9382" offset="0%"></stop>
            <stop stop-color="#D25A4E" offset="100%"></stop>
        </linearGradient>
        <linearGradient x1="50%" y1="0%" x2="50%" y2="100%" id="linearGradient-4">
            <stop stop-color="#FF9382" offset="0%"></stop>
            <stop stop-color="#D25A4E" offset="100%"></stop>
        </linearGradient>
        <linearGradient x1="50%" y1="0%" x2="50%" y2="100%" id="linearGradient-5">
            <stop stop-color="#FF9382" offset="0%"></stop>
            <stop stop-color="#D25A4E" offset="100%"></stop>
        </linearGradient>
        <linearGradient x1="50%" y1="0%" x2="50%" y2="100%" id="linearGradient-6">
            <stop stop-color="#FF9382" offset="0%"></stop>
            <stop stop-color="#D25A4E" offset="100%"></stop>
        </linearGradient>
        <linearGradient x1="50%" y1="0%" x2="50%" y2="100%" id="linearGradient-7">
            <stop stop-color="#FF9382" offset="0%"></stop>
            <stop stop-color="#D25A4E" offset="100%"></stop>
        </linearGradient>
        <linearGradient x1="50%" y1="0%" x2="50%" y2="100%" id="linearGradient-8">
            <stop stop-color="#FF9382" offset="0%"></stop>
            <stop stop-color="#D25A4E" offset="100%"></stop>
        </linearGradient>
    </defs>
    <g id="Website" stroke="none" stroke-width="1" fill="none" fill-rule="evenodd">
        <g id="Artboard-Copy" transform="translate(-491.000000, -258.000000)">
            <path d="M42.7712521,46.2168182 C48.0425469,40.8012182 50.6781943,34.4759474 50.6781943,27.2410058 L1414.80709,24.2598699 C1415.58409,24.2281273 1416.29125,24.5206868 1416.92859,25.1375483 C1417.55671,25.7544097 1417.87077,26.4541983 1417.87077,27.236914 L1417.87077,1660.58899 C1409.98861,1659.55594 1402.92429,1662.1511 1396.6778,1668.37446 C1390.43131,1674.59782 1387.90154,1681.55963 1389.08849,1689.25987 L26.0197132,1689.19769 C25.2693453,1689.23914 24.5869287,1688.95053 23.9724634,1688.33186 C23.3579981,1687.72387 23.0338436,1687.01651 23,1686.20979 L23,53.7955063 C30.9095399,54.1586476 37.4999573,51.6324183 42.7712521,46.2168182 Z" id="Rectangle" stroke="#743D3D" stroke-width="2" fill="#302231" fill-rule="nonzero"></path>
            <g id="Group-2" transform="translate(491.340530, 258.965832)">
                <g id="Group" transform="translate(0.659470, 0.034168)">
                    <circle id="Oval" fill="url(#linearGradient-1)" cx="250.5" cy="22.5" r="10.5"></circle>
                    <circle id="Oval" stroke="#302231" stroke-width="3" fill="url(#linearGradient-2)" cx="250.5" cy="37.5" r="12"></circle>
                    <path d="M33.9731445,57.5800781 C32.9855143,57.21875 32.1363932,56.8212891 31.4257812,56.3876953 C30.7151693,55.9541016 30.1551107,55.219401 29.7456055,54.1835938 C29.5288086,53.7259115 29.7877604,50.8413086 30.5224609,45.5297852 C31.2571615,40.2182617 32.1183268,34.4430339 33.105957,28.2041016 C34.0935872,21.9651693 35.0390625,16.2320964 35.9423828,11.0048828 C36.8457031,5.77766927 37.3575846,3.01953125 37.4780273,2.73046875 C37.5743815,2.46549479 37.8273112,2.08007812 38.2368164,1.57421875 C38.6463216,1.06835938 39.3569336,0.682942708 40.3686523,0.41796875 L40.3686523,0.41796875 L24.7954102,0.41796875 C25.8793945,0.803385417 26.7586263,1.15266927 27.4331055,1.46582031 C28.1075846,1.77897135 28.5110677,2.6883138 28.6435547,4.19384766 C28.7760417,5.69938151 28.613444,8.10823568 28.1557617,11.4204102 C27.6980794,14.7325846 26.879069,19.5804036 25.6987305,25.9638672 C24.7111003,31.1429036 24.0004883,35.9124349 23.5668945,40.2724609 C23.1333008,44.632487 22.4226888,46.7522786 21.4350586,46.6318359 C20.4956055,46.366862 19.8391927,44.5361328 19.4658203,41.1396484 C19.0924479,37.7431641 18.6889648,34.4550781 18.2553711,31.2753906 C16.6655273,20.0019531 15.5634766,12.2213542 14.9492188,7.93359375 C14.3349609,3.64583333 15.1720378,1.140625 17.4604492,0.41796875 L17.4604492,0.41796875 L0.694824219,0.41796875 C1.15250651,0.755208333 1.55598958,1.30322266 1.90527344,2.06201172 C2.25455729,2.82080078 2.48942057,3.46516927 2.60986328,3.99511719 C3.23616536,8.25878906 4.01904297,13.2511393 4.95849609,18.972168 C5.89794922,24.6931966 6.78922526,30.1733398 7.63232422,35.4125977 C8.47542318,40.6518555 9.16796875,45.1624349 9.70996094,48.9443359 C10.2519531,52.726237 10.4386393,54.8098958 10.2700195,55.1953125 C9.95686849,55.9179688 9.49316406,56.4117839 8.87890625,56.6767578 C8.26464844,56.9417318 7.64436849,57.2428385 7.01806641,57.5800781 L7.01806641,57.5800781 L33.9731445,57.5800781 Z M73.8276367,57.5800781 C73.8276367,54.8821615 73.8336589,52.1842448 73.8457031,49.4863281 C73.8577474,46.7884115 73.8758138,44.0784505 73.8999023,41.3564453 C71.9246419,41.3564453 69.9554036,41.3504232 67.9921875,41.3383789 C66.0289714,41.3263346 64.0717773,41.3082682 62.1206055,41.2841797 C64.1922201,42.8017578 65.2400716,44.186849 65.2641602,45.4394531 C65.2882487,46.6920573 64.8546549,47.613444 63.9633789,48.2036133 C63.0721029,48.7937826 62.012207,48.9383138 60.7836914,48.637207 C59.5551758,48.3361003 58.7361654,47.3785807 58.3266602,45.7646484 C57.4835612,42.5608724 57.4173177,39.784668 58.1279297,37.4360352 C58.8385417,35.0874023 59.8924154,33.3530273 61.2895508,32.2329102 C62.6866862,31.112793 64.2223307,30.7032878 65.8964844,31.0043945 C67.570638,31.3055013 68.949707,32.491862 70.0336914,34.5634766 L70.0336914,34.5634766 L70.0336914,22.1699219 C67.3116862,20.4114583 65.0292969,20.0802409 63.1865234,21.1762695 C61.34375,22.2722982 59.7358398,24.0488281 58.362793,26.5058594 C57.6642253,20.3391927 57.8388672,15.8707682 58.8867188,13.1005859 C59.9345703,10.3304036 61.3377279,8.80078125 63.0961914,8.51171875 C64.8546549,8.22265625 66.7154948,8.93929036 68.6787109,10.6616211 C70.6419271,12.3839518 72.2016602,14.6302083 73.3579102,17.4003906 L73.3579102,17.4003906 L73.3579102,0.41796875 L73.3579102,0.41796875 L43.4038086,0.41796875 C44.3673503,0.899739583 45.1140951,1.41162109 45.644043,1.95361328 C46.1739909,2.49560547 46.5654297,3.61572266 46.8183594,5.31396484 C47.0712891,7.01220703 47.2158203,9.54150391 47.2519531,12.9018555 C47.2880859,16.262207 47.3181966,20.9775391 47.3422852,27.0478516 L47.3422852,27.0478516 L47.3428867,29.714987 C47.3455939,35.5278955 47.3574376,40.0708165 47.378418,43.34375 C47.4025065,47.1015625 47.2820638,49.9018555 47.0170898,51.7446289 C46.7521159,53.5874023 46.2823893,54.8219401 45.6079102,55.4482422 C44.933431,56.0745443 43.909668,56.7851562 42.5366211,57.5800781 L42.5366211,57.5800781 L73.8276367,57.5800781 Z M108.515137,57.5800781 C112.826986,40.5013021 108.177897,32.046224 94.5678711,32.2148438 L94.5678711,32.2148438 L94.5678711,41.8261719 L94.5678711,41.8261719 L96.1577148,41.8261719 C96.1818034,39.8509115 96.7177734,38.9957682 97.765625,39.2607422 C98.8134766,39.5257161 99.6625977,40.2724609 100.312988,41.5009766 C100.963379,42.7294922 101.071777,44.1025391 100.638184,45.6201172 C100.20459,47.1376953 98.5424805,48.1494141 95.6518555,48.6552734 C94.2788086,48.6552734 93.273112,48.3481445 92.6347656,47.7338867 C91.9964193,47.1196289 91.5628255,45.6020508 91.3339844,43.1811523 C91.1051432,40.7602539 91.0148112,37.1349284 91.0629883,32.3051758 C91.1111654,27.4754232 91.1472982,20.8330078 91.1713867,12.3779297 C91.0991211,9.84863281 92.1770833,8.35514323 94.4052734,7.89746094 C96.6334635,7.43977865 98.5424805,9.11393229 100.132324,12.9199219 L100.132324,12.9199219 L100.132324,0.41796875 L100.132324,0.41796875 L75.6342773,0.41796875 C76.8387044,1.30924479 77.7360026,2.01985677 78.3261719,2.54980469 C78.9163411,3.0797526 79.3258464,4.16373698 79.5546875,5.80175781 C79.7835286,7.43977865 79.8859049,9.98714193 79.8618164,13.4438477 C79.8417426,16.3244358 79.8300329,20.3467204 79.8266873,25.5107015 L79.8260449,26.7719775 C79.8259646,26.9858436 79.8258977,27.2015365 79.8258442,27.419056 L79.8256836,28.7460938 C79.804087,34.814745 79.7921716,39.629675 79.7899375,43.1908837 L79.7895508,44.3735352 C79.7895508,48.0229492 79.6751302,50.7389323 79.4462891,52.5214844 C79.2174479,54.3040365 78.8139648,55.4663086 78.2358398,56.0083008 C77.6577148,56.550293 76.7905273,57.0742188 75.6342773,57.5800781 L75.6342773,57.5800781 L108.515137,57.5800781 Z M145.587402,57.5800781 C144.599772,57.21875 143.750651,56.8212891 143.040039,56.3876953 C142.329427,55.9541016 141.769368,55.219401 141.359863,54.1835938 C141.143066,53.7259115 141.402018,50.8413086 142.136719,45.5297852 C142.871419,40.2182617 143.732585,34.4430339 144.720215,28.2041016 C145.707845,21.9651693 146.65332,16.2320964 147.556641,11.0048828 C148.459961,5.77766927 148.971842,3.01953125 149.092285,2.73046875 C149.188639,2.46549479 149.441569,2.08007812 149.851074,1.57421875 C150.260579,1.06835938 150.971191,0.682942708 151.98291,0.41796875 L151.98291,0.41796875 L136.409668,0.41796875 C137.493652,0.803385417 138.372884,1.15266927 139.047363,1.46582031 C139.721842,1.77897135 140.125326,2.6883138 140.257812,4.19384766 C140.390299,5.69938151 140.227702,8.10823568 139.77002,11.4204102 C139.312337,14.7325846 138.493327,19.5804036 137.312988,25.9638672 C136.325358,31.1429036 135.614746,35.9124349 135.181152,40.2724609 C134.747559,44.632487 134.036947,46.7522786 133.049316,46.6318359 C132.109863,46.366862 131.453451,44.5361328 131.080078,41.1396484 C130.706706,37.7431641 130.303223,34.4550781 129.869629,31.2753906 C128.279785,20.0019531 127.177734,12.2213542 126.563477,7.93359375 C125.949219,3.64583333 126.786296,1.140625 129.074707,0.41796875 L129.074707,0.41796875 L112.309082,0.41796875 C112.766764,0.755208333 113.170247,1.30322266 113.519531,2.06201172 C113.868815,2.82080078 114.103678,3.46516927 114.224121,3.99511719 C114.850423,8.25878906 115.633301,13.2511393 116.572754,18.972168 C117.512207,24.6931966 118.403483,30.1733398 119.246582,35.4125977 C120.089681,40.6518555 120.782227,45.1624349 121.324219,48.9443359 C121.866211,52.726237 122.052897,54.8098958 121.884277,55.1953125 C121.571126,55.9179688 121.107422,56.4117839 120.493164,56.6767578 C119.878906,56.9417318 119.258626,57.2428385 118.632324,57.5800781 L118.632324,57.5800781 L145.587402,57.5800781 Z M185.441895,57.5800781 C185.441895,54.8821615 185.447917,52.1842448 185.459961,49.4863281 C185.472005,46.7884115 185.490072,44.0784505 185.51416,41.3564453 C183.5389,41.3564453 181.569661,41.3504232 179.606445,41.3383789 C177.643229,41.3263346 175.686035,41.3082682 173.734863,41.2841797 C175.806478,42.8017578 176.854329,44.186849 176.878418,45.4394531 C176.902507,46.6920573 176.468913,47.613444 175.577637,48.2036133 C174.686361,48.7937826 173.626465,48.9383138 172.397949,48.637207 C171.169434,48.3361003 170.350423,47.3785807 169.940918,45.7646484 C169.097819,42.5608724 169.031576,39.784668 169.742188,37.4360352 C170.452799,35.0874023 171.506673,33.3530273 172.903809,32.2329102 C174.300944,31.112793 175.836589,30.7032878 177.510742,31.0043945 C179.184896,31.3055013 180.563965,32.491862 181.647949,34.5634766 L181.647949,34.5634766 L181.647949,22.1699219 C178.925944,20.4114583 176.643555,20.0802409 174.800781,21.1762695 C172.958008,22.2722982 171.350098,24.0488281 169.977051,26.5058594 C169.278483,20.3391927 169.453125,15.8707682 170.500977,13.1005859 C171.548828,10.3304036 172.951986,8.80078125 174.710449,8.51171875 C176.468913,8.22265625 178.329753,8.93929036 180.292969,10.6616211 C182.256185,12.3839518 183.815918,14.6302083 184.972168,17.4003906 L184.972168,17.4003906 L184.972168,0.41796875 L184.972168,0.41796875 L155.018066,0.41796875 C155.981608,0.899739583 156.728353,1.41162109 157.258301,1.95361328 C157.788249,2.49560547 158.179688,3.61572266 158.432617,5.31396484 C158.685547,7.01220703 158.830078,9.54150391 158.866211,12.9018555 C158.902344,16.262207 158.932454,20.9775391 158.956543,27.0478516 L158.956543,27.0478516 L158.956881,29.063882 C158.956957,29.2826591 158.957044,29.4996941 158.957145,29.714987 L158.957897,30.9858393 C158.961656,36.1939525 158.97325,40.313256 158.992676,43.34375 C159.016764,47.1015625 158.896322,49.9018555 158.631348,51.7446289 C158.366374,53.5874023 157.896647,54.8219401 157.222168,55.4482422 C156.547689,56.0745443 155.523926,56.7851562 154.150879,57.5800781 L154.150879,57.5800781 L185.441895,57.5800781 Z M222.333496,57.5800781 C220.28597,56.2552083 218.672038,55.2555339 217.491699,54.5810547 C216.311361,53.9065755 215.426107,52.7683919 214.835938,51.1665039 C214.245768,49.5646159 213.878418,47.1075846 213.733887,43.7954102 C213.589355,40.4832357 213.51709,35.514974 213.51709,28.890625 L213.51759,16.3675423 C213.522924,13.3989004 213.570935,10.9850452 213.661621,9.12597656 C214.239746,9.1500651 215.016602,9.16813151 215.992188,9.18017578 C216.967773,9.19222005 217.997559,9.18619792 219.081543,9.16210938 C220.358236,9.16210938 221.123047,10.3665365 221.375977,12.7753906 C221.628906,15.1842448 220.876139,17.1474609 219.117676,18.6650391 C220.779785,18.6650391 222.59847,18.6710612 224.57373,18.6831055 C226.055176,18.6921387 227.204651,18.6977844 228.022156,18.7000427 L228.403244,18.7008896 C228.521052,18.7010778 228.629639,18.7011719 228.729004,18.7011719 L228.729004,18.7011719 L228.729004,0.41796875 L228.729004,0.41796875 L187.248535,0.41796875 L187.248535,0.41796875 L187.248535,18.6650391 L187.248535,18.6650391 L196.82373,18.6650391 C194.366699,16.1116536 193.710286,13.8834635 194.854492,11.9804688 C195.998698,10.077474 196.751465,9.12597656 197.112793,9.12597656 L197.112793,9.12597656 L202.677246,9.12597656 C202.653158,10.8844401 202.629069,13.2571615 202.60498,16.2441406 C202.580892,19.2311198 202.568848,23.0732422 202.568848,27.7705078 C202.520671,34.3225911 202.544759,39.4233398 202.641113,43.0727539 C202.737467,46.722168 202.737467,49.5043945 202.641113,51.4194336 C202.544759,53.3344727 202.285807,54.6653646 201.864258,55.4121094 C201.442708,56.1588542 200.701986,56.8815104 199.64209,57.5800781 L199.64209,57.5800781 L222.333496,57.5800781 Z" id="VELVETMANGO" fill="url(#linearGradient-3)" fill-rule="nonzero"></path>
                    <g id="Group-3" transform="translate(271.226074, 0.417969)" fill-rule="nonzero">
                        <path d="M16.9824219,57.1621094 C15.3203125,56.4635417 14.3507487,54.3377279 14.0737305,50.784668 C13.7967122,47.2316081 13.6582031,44.4072266 13.6582031,42.3115234 L13.6582031,42.3115234 L13.6582031,22.6914062 C13.875,24.3535156 14.8566081,27.5452474 16.6030273,32.2666016 C18.3494466,36.9879557 20.366862,40.5651042 22.6552734,42.9980469 C23.7633464,39.5533854 24.9075521,35.8377279 26.0878906,31.8510742 C27.2682292,27.8644206 28.8701172,25.883138 30.8935547,25.9072266 L30.8935547,25.9072266 L30.8929986,31.6011751 C30.8929616,31.7774981 30.8929226,31.9524737 30.8928819,32.1261018 L30.8919477,35.1058744 C30.8918847,35.2633322 30.8918198,35.4194425 30.8917531,35.5742052 L30.8911025,36.9306871 C30.8910246,37.0773647 30.8909449,37.2226948 30.8908634,37.3666774 L30.8900793,38.6261378 C30.8899866,38.7620353 30.8898921,38.8965853 30.8897957,39.0297877 L30.8891952,39.8128321 C30.8890914,39.9406445 30.8889857,40.0671093 30.8888782,40.1922267 L30.8882109,40.9267604 C30.888096,41.0464876 30.8879793,41.1648673 30.8878606,41.2818995 L30.8871266,41.9679225 C30.8870006,42.0795646 30.8868727,42.1898592 30.8867429,42.2988063 L30.8859422,42.9363186 C30.883199,45.0074587 30.8797143,46.5395908 30.8754883,47.5327148 C30.8668164,49.5706055 30.8612664,51.0059742 30.8588383,51.8388211 L30.8581445,52.0941211 C30.8580482,52.1329518 30.8579615,52.1699229 30.8578844,52.2050344 L30.8574219,52.5371094 C30.8574219,54.1992188 30.7369792,55.3253581 30.4960938,55.9155273 C30.2552083,56.5056966 29.7613932,56.9091797 29.0146484,57.1259766 L29.0146484,57.1259766 L41.9863281,57.1259766 C41.4322917,56.3551432 41.046875,55.6565755 40.8300781,55.0302734 C40.6132812,54.4039714 40.4747721,53.2055664 40.4145508,51.4350586 C40.3543294,49.6645508 40.3483073,46.9907227 40.3964844,43.4135742 C40.4398438,40.1941406 40.4636914,35.7015674 40.4680273,29.9358545 L40.46875,27.9667969 C40.4446615,21.2701823 40.3964844,16.1694336 40.3242188,12.6645508 C40.3045099,11.7086737 40.2933118,10.8222253 40.2906242,10.0052056 L40.2907735,9.21132893 C40.2977413,7.41295008 40.3510446,5.99257221 40.4506836,4.95019531 C40.6072591,3.31217448 40.9444987,2.25227865 41.4624023,1.77050781 C41.980306,1.28873698 42.8294271,0.698567708 44.0097656,0 L44.0097656,0 L27.0634766,0 C29.0869141,0.337239583 30.1829427,1.48144531 30.3515625,3.43261719 C30.5201823,5.38378906 30.6044922,7.4313151 30.6044922,9.57519531 C28.8942057,11.0205078 27.5030924,12.3092448 26.4311523,13.4414062 C25.3592122,14.5735677 24.1005859,16.9462891 22.6552734,20.5595703 C20.3427734,17.7412109 18.3374023,14.543457 16.6391602,10.9663086 C14.940918,7.38916016 13.9472656,3.73372396 13.6582031,0 L13.6582031,0 L0.614257812,0 C1.55371094,0.770833333 2.25830078,1.53564453 2.72802734,2.29443359 C3.19775391,3.05322266 3.52294922,4.36002604 3.70361328,6.21484375 C3.88427734,8.06966146 3.96858724,10.7495117 3.95654297,14.2543945 C3.94880022,16.5075335 3.94354622,19.3305938 3.94078095,22.7235755 L3.93995137,23.8756776 C3.93982847,24.0712127 3.93971325,24.2685067 3.93960571,24.4675598 L3.93905266,25.6829865 C3.93897585,25.8890757 3.93890672,26.0969238 3.93884526,26.306531 L3.93877395,30.2764221 C3.9412522,35.8954297 3.95921947,40.3889009 3.99267578,43.7568359 C4.02880859,47.3942057 3.95654297,50.1583659 3.77587891,52.0493164 C3.59521484,53.9402669 3.22184245,55.2049154 2.65576172,55.8432617 C2.08968099,56.4816081 1.20442708,56.921224 0,57.1621094 L0,57.1621094 L16.9824219,57.1621094 Z" id="Path" fill="url(#linearGradient-4)"></path>
                        <path d="M77.2880859,0 L76.8036804,0.247283936 C76.3226624,0.488922119 75.8518066,0.713623047 75.3911133,0.921386719 C74.7768555,1.19840495 74.3251953,1.67415365 74.0361328,2.34863281 C73.8434245,2.75813802 74.0180664,4.85384115 74.5600586,8.63574219 C75.1020508,12.4176432 75.7945964,16.9282227 76.6376953,22.1674805 C77.4807943,27.4067383 78.3720703,32.8808594 79.3115234,38.5898438 C80.2509766,44.2988281 81.0458984,49.2851562 81.6962891,53.5488281 C81.7926432,54.1028646 82.0154622,54.7592773 82.3647461,55.5180664 C82.7140299,56.2768555 83.1295573,56.8248698 83.6113281,57.1621094 L83.6113281,57.1621094 L66.8457031,57.1621094 L67.0363959,57.0962739 C69.1591372,56.3060124 69.9748047,54.0154576 69.4833984,50.2246094 C68.9775391,46.3222656 67.9778646,39.9267578 66.484375,31.0380859 C63.8828125,30.9417318 61.9195964,32.1040039 60.5947266,34.5249023 C59.2698568,36.9458008 58.5351562,39.7039388 58.390625,42.7993164 C58.2460938,45.894694 58.6616211,48.8696289 59.637207,51.7241211 C60.612793,54.5786133 62.1002604,56.391276 64.0996094,57.1621094 L64.0996094,57.1621094 L47.3339844,57.1621094 L47.6998291,56.5162354 L47.6998291,56.5162354 L48.074707,55.8793945 C48.3276367,55.4578451 48.5143229,55.1025391 48.6347656,54.8134766 C48.7311198,54.5244141 49.1346029,51.7722982 49.8452148,46.5571289 C50.5558268,41.3419596 51.2905273,35.6149089 52.0493164,29.3759766 C52.8081055,23.1370443 53.4645182,17.3618164 54.0185547,12.050293 C54.5725911,6.73876953 54.7532552,3.8421224 54.5605469,3.36035156 C54.1269531,2.34863281 53.5548503,1.62597656 52.8442383,1.19238281 C52.1336263,0.758789062 51.2965495,0.361328125 50.3330078,0 L50.3330078,0 L77.2880859,0 Z M63.1240234,10.9121094 C62.1123047,10.8157552 61.4438477,12.6946615 61.1186523,16.5488281 C60.793457,20.4029948 60.5826823,23.5224609 60.4863281,25.9072266 C62.6061198,22.992513 64.3164062,21.5351563 65.6171875,21.5351563 C65.4967448,20.7402344 65.2799479,18.8432617 64.9667969,15.8442383 C64.6536458,12.8452148 64.039388,11.2011719 63.1240234,10.9121094 Z" id="Combined-Shape" fill="url(#linearGradient-5)"></path>
                        <path d="M104.31543,57.1621094 C102.460612,56.4635417 101.38265,54.3377279 101.081543,50.784668 C100.780436,47.2316081 100.629883,44.4072266 100.629883,42.3115234 L100.629883,42.3115234 L100.629883,22.6914062 C101.111654,25.6783854 102.255859,29.7915039 104.0625,35.0307617 C105.869141,40.2700195 107.892578,43.7809245 110.132812,45.5634766 C110.108724,47.3219401 110.09668,48.7973633 110.09668,49.9897461 L110.09668,49.9897461 L110.09668,52.5371094 C110.09668,54.1992188 109.964193,55.3253581 109.699219,55.9155273 C109.434245,56.5056966 108.892253,56.9091797 108.073242,57.1259766 L108.073242,57.1259766 L122.30957,57.1259766 C121.707357,56.3551432 121.285807,55.6565755 121.044922,55.0302734 C120.804036,54.4039714 120.653483,53.2055664 120.593262,51.4350586 C120.561717,50.5076497 120.545044,49.3323911 120.543241,47.9092827 L120.543733,47.1084615 C120.546355,46.0079265 120.556842,44.7762974 120.575195,43.4135742 C120.620161,40.0749023 120.644142,35.3670378 120.64714,29.2899805 L120.64732,27.302455 C120.644604,20.9319056 120.602496,16.0526042 120.520996,12.6645508 C120.436686,9.15966797 120.478841,6.58821615 120.647461,4.95019531 C120.816081,3.31217448 121.183431,2.25227865 121.749512,1.77050781 C122.315592,1.28873698 123.249023,0.698567708 124.549805,0 L124.549805,0 L105.941406,0 C107.025391,0.168619792 107.838379,0.463704427 108.380371,0.885253906 C108.922363,1.30680339 109.301758,2.46305339 109.518555,4.35400391 C109.735352,6.24495443 109.84375,9.1656901 109.84375,13.1162109 L109.84375,29.8457031 C107.627604,28.1354167 105.676432,24.3956706 103.990234,18.6264648 C102.304036,12.8572591 101.183919,6.6484375 100.629883,0 L100.629883,0 L86.3212891,0 C87.3570964,0.770833333 88.1279297,1.53564453 88.6337891,2.29443359 C89.1396484,3.05322266 89.4949544,4.36002604 89.699707,6.21484375 C89.9044596,8.06966146 90.0008138,10.7495117 89.9887695,14.2543945 C89.9797363,16.8830566 89.9740906,20.2874451 89.9718323,24.4675598 L89.9710718,26.306531 C89.9710104,26.5161382 89.9709566,26.7275044 89.9709105,26.9406296 L89.9708023,29.5967386 C89.9725205,35.5341511 89.996576,40.2541835 90.0429688,43.7568359 C90.0911458,47.3942057 90.0128581,50.1583659 89.8081055,52.0493164 C89.6033529,53.9402669 89.1878255,55.2049154 88.5615234,55.8432617 C87.9352214,56.4816081 86.9596354,56.921224 85.6347656,57.1621094 L85.6347656,57.1621094 L104.31543,57.1621094 Z" id="Path" fill="url(#linearGradient-6)"></path>
                        <path d="M162.958984,57.1621094 C162.429036,56.5839844 162.224284,55.0724284 162.344727,52.6274414 C162.465169,50.1824544 162.567546,47.4905599 162.651855,44.5517578 C162.736165,41.6129557 162.627767,38.7524414 162.32666,35.9702148 C162.025553,33.1879883 161.176432,31.1585286 159.779297,29.8818359 C157.755859,28.0751953 155.425293,27.4669596 152.787598,28.0571289 C150.149902,28.6472982 147.819336,28.5690104 145.795898,27.8222656 L145.795898,27.8222656 L145.94043,36.6748047 L146.735352,36.6748047 C147.048503,35.4944661 148.066243,35.1271159 149.788574,35.5727539 C151.510905,36.0183919 152.396159,37.5299479 152.444336,40.1074219 C152.468424,42.0345052 152.046875,43.5882161 151.179688,44.7685547 C150.3125,45.9488932 148.361328,46.5390625 145.326172,46.5390625 C142.893229,46.563151 141.31543,44.9191081 140.592773,41.6069336 C139.870117,38.2947591 139.701497,34.5188802 140.086914,30.2792969 C140.472331,26.0397135 141.279297,21.9326172 142.507813,17.9580078 C143.736328,13.9833984 145.097331,11.3457031 146.59082,10.0449219 C147.120768,9.56315104 147.686849,9.20182292 148.289063,8.9609375 C148.891276,8.72005208 149.97526,8.5875651 151.541016,8.56347656 C155.395182,8.56347656 157.996745,8.72607422 159.345703,9.05126953 C160.694661,9.37646484 161.549805,10.0449219 161.911133,11.0566406 L161.911133,11.0566406 L161.911133,0 L161.911133,0 L127.801758,0 C130.836914,0.746744792 132.270182,2.61360677 132.101563,5.60058594 C131.932943,8.5875651 131.294596,12.2490234 130.186523,16.5849609 C129.078451,20.9208984 128.054688,25.7205404 127.115234,30.9838867 C126.175781,36.2472331 126.440755,41.5166016 127.910156,46.7919922 C128.51237,48.5986328 129.343424,49.8271484 130.40332,50.4775391 C131.463216,51.1279297 132.499023,51.6578776 133.510742,52.0673828 C134.522461,52.476888 135.401693,52.9947917 136.148438,53.6210938 C136.895182,54.2473958 137.280599,55.4277344 137.304688,57.1621094 L137.304688,57.1621094 L162.958984,57.1621094 Z" id="Path" fill="url(#linearGradient-7)"></path>
                        <path d="M199.019531,0 L198.741729,0.149643792 C196.652069,1.31302417 195.486043,2.84696452 195.243652,4.75146484 C194.990723,6.73876953 195.165365,9.28613281 195.767578,12.3935547 C196.369792,15.5009766 197.122559,19.2527669 198.025879,23.6489258 C198.929199,28.0450846 199.416992,33.2421875 199.489258,39.2402344 C199.513346,43.0221354 198.983398,46.3282878 197.899414,49.1586914 C196.81543,51.9890951 195.755534,54.656901 194.719727,57.1621094 L194.719727,57.1621094 L170.799805,57.1621094 L170.523268,56.6936675 C169.246254,54.479877 168.158095,51.8778863 167.258789,48.8876953 C166.295247,45.6839193 165.801432,42.3115234 165.777344,38.7705078 C165.705078,32.9651693 166.102539,27.8644206 166.969727,23.4682617 C167.836914,19.0721029 168.547526,15.3022461 169.101563,12.1586914 C169.655599,9.01513672 169.739909,6.45572917 169.354492,4.48046875 C168.969076,2.50520833 167.499674,1.01171875 164.946289,0 L164.946289,0 L199.019531,0 Z M182.615234,10.1533203 C181.049479,10.1533203 179.863118,12.1225586 179.056152,16.0610352 C178.249186,19.9995117 177.833659,24.3294271 177.80957,29.0507813 C177.785482,33.7721354 178.164876,38.0960286 178.947754,42.0224609 C179.730632,45.9488932 180.953125,47.8759766 182.615234,47.8037109 C185.33724,47.7073568 186.806641,41.5888672 187.023437,29.4482422 C187.047526,27.9788411 186.993327,26.148112 186.86084,23.9560547 C186.728353,21.7639974 186.49349,19.6502279 186.15625,17.6147461 C185.81901,15.5792643 185.361328,13.8268229 184.783203,12.3574219 C184.205078,10.8880208 183.482422,10.1533203 182.615234,10.1533203 Z" id="Combined-Shape" fill="url(#linearGradient-8)"></path>
                    </g>
                </g>
            </g>
        </g>
    </g>
</svg>