<?xml version="1.0" encoding="UTF-8"?>
<svg width="20px" height="20px" viewBox="0 0 20 20" version="1.1" xmlns="http://www.w3.org/2000/svg" xmlns:xlink="http://www.w3.org/1999/xlink">
    <g id="Page-2" stroke="none" stroke-width="1" fill="none" fill-rule="evenodd">
        <g id="Warning" fill="#F9CD5F" fill-rule="nonzero">
            <path d="M9.57422837,11.4819473 L10.4257716,11.4819473 C10.570665,11.4819473 10.6877849,11.3648273 10.6877849,11.219934 L11.2118116,5.32463449 C11.2118116,5.17974113 11.0946916,5.06262118 10.9497982,5.06262118 L9.05020175,5.06262118 C8.90530839,5.06262118 8.78818844,5.17974113 8.78818844,5.32463449 L9.31221506,11.219934 C9.31221506,11.3648273 9.42933501,11.4819473 9.57422837,11.4819473 Z M10,12.382749 C9.29466017,12.382749 8.72268511,12.9547241 8.72268511,13.6600639 C8.72268511,14.3654038 9.29466017,14.9373788 10,14.9373788 C10.7053398,14.9373788 11.2773149,14.3654038 11.2773149,13.6600639 C11.2773149,12.9547241 10.7053398,12.382749 10,12.382749 Z M10,0 C4.48592989,0 0,4.48592989 0,10 C0,15.5140701 4.48592989,20 10,20 C15.5140701,20 20,15.5140701 20,10 C20,4.48592989 15.5140701,0 10,0 Z M10,18.1659068 C5.49730126,18.1659068 1.83409317,14.5026987 1.83409317,10 C1.83409317,5.49730126 5.49730126,1.83409317 10,1.83409317 C14.5026987,1.83409317 18.1659068,5.49730126 18.1659068,10 C18.1659068,14.5026987 14.5026987,18.1659068 10,18.1659068 Z" id="Shape"></path>
        </g>
    </g>
</svg>