<?xml version="1.0" standalone="no"?>
<!DOCTYPE svg PUBLIC "-//W3C//DTD SVG 20010904//EN"
 "http://www.w3.org/TR/2001/REC-SVG-20010904/DTD/svg10.dtd">
<svg version="1.0" xmlns="http://www.w3.org/2000/svg"
 width="700.000000pt" height="700.000000pt" viewBox="0 0 700.000000 700.000000"
 preserveAspectRatio="xMidYMid meet">
<metadata>
Created by potrace 1.11, written by Peter Selinger 2001-2013
</metadata>
<g transform="translate(0.000000,700.000000) scale(0.100000,-0.100000)"
fill="#000000" stroke="none">
<path d="M3410 6038 c-96 -91 -185 -170 -197 -176 -12 -7 -36 -12 -53 -12 -18
0 -222 38 -455 85 -232 47 -432 85 -444 85 l-21 0 0 -377 c0 -208 3 -408 6
-444 l7 -66 85 -17 c168 -33 182 -37 182 -52 0 -46 -258 -745 -285 -773 -12
-12 -65 -7 -377 32 -200 26 -406 52 -458 58 -52 5 -103 12 -112 15 -10 3 -18
1 -18 -4 0 -5 103 -182 229 -393 126 -211 228 -385 227 -386 -1 -1 -1404 345
-1423 352 -9 3 13 78 72 247 46 134 93 270 104 303 35 103 -2 39 -129 -220
-200 -406 -237 -507 -280 -758 -22 -133 -25 -230 -9 -309 21 -101 119 -426
148 -490 111 -246 316 -506 642 -814 364 -343 471 -433 629 -523 279 -161 865
-396 1275 -512 335 -95 553 -131 1065 -178 304 -28 456 -32 685 -21 498 24
840 109 1250 310 296 145 556 329 770 544 226 228 348 440 410 711 21 90 33
259 26 360 l-6 80 -14 -40 c-14 -43 -151 -308 -156 -303 -6 6 -488 1054 -492
1070 -4 13 110 237 215 422 3 5 -3 6 -13 3 -11 -5 -22 -1 -31 10 -11 15 -9 21
8 40 17 18 2 14 -85 -22 l-106 -44 -393 415 c-216 229 -397 427 -403 441 -8
20 -6 27 14 42 l23 17 -79 51 c-43 28 -99 63 -125 78 -38 21 -46 30 -39 43 8
15 -62 49 -495 246 -277 126 -506 236 -509 244 -4 10 -9 11 -18 3 -11 -8 -37
50 -126 282 -62 161 -118 305 -125 321 -10 26 -22 -38 -94 -540 -45 -313 -85
-591 -88 -619 l-5 -50 68 -35 c563 -293 693 -365 693 -383 0 -14 -292 -425
-366 -515 -3 -5 -916 388 -928 398 -10 10 -16 0 213 319 96 133 185 248 198
254 17 7 30 7 49 -2 15 -6 29 -9 32 -6 5 5 -146 1124 -170 1260 -22 122 -3
127 -198 -57z m1986 -2210 c426 -313 465 -344 462 -368 -5 -34 -447 -569 -471
-569 -25 -1 -909 640 -903 655 6 16 384 584 404 607 8 9 21 17 29 17 8 0 223
-154 479 -342z m-3181 -448 c112 -11 300 -45 433 -79 74 -20 96 -30 76 -38 -6
-2 -192 -105 -415 -229 -222 -124 -416 -232 -430 -240 -24 -12 -71 -5 -475 76
-561 112 -500 96 -478 121 10 11 156 103 325 204 l306 184 89 4 c211 7 467 6
569 -3z m-820 -6 c-45 -18 -944 -284 -960 -284 -20 0 -256 92 -251 98 7 6 358
82 516 111 178 33 431 69 520 74 84 5 186 6 175 1z m1700 -219 c302 -100 436
-154 608 -243 126 -65 127 -66 109 -86 -14 -15 -335 -385 -442 -509 -3 -4
-200 61 -436 144 -236 83 -463 162 -504 176 -41 14 -76 27 -78 29 -7 5 464
574 475 574 7 0 128 -38 268 -85z m3345 -633 c144 -247 181 -317 174 -332 -18
-37 -489 -560 -505 -560 -12 0 -60 82 -158 266 -78 146 -144 276 -147 288 -8
33 424 683 441 664 6 -7 94 -154 195 -326z m-2275 150 c235 -119 329 -172 525
-298 l146 -93 -22 -233 c-12 -128 -22 -234 -23 -235 -6 -17 -976 352 -1013
385 -12 10 -18 30 -18 55 0 39 67 549 76 575 3 10 20 5 67 -21 34 -19 152 -80
262 -135z m970 -632 c88 -68 292 -229 453 -358 l292 -233 0 -56 c0 -48 -2 -55
-17 -50 -39 11 -669 289 -680 300 -10 10 -163 339 -245 527 l-19 45 28 -26
c15 -14 100 -81 188 -149z m-3660 -46 l320 -67 193 47 c107 26 196 45 199 42
3 -3 0 -25 -6 -50 -17 -67 -14 -94 12 -110 18 -12 946 -296 967 -296 4 0 49
32 100 70 51 39 95 70 97 70 14 0 -16 -43 -137 -195 -77 -96 -146 -175 -153
-175 -15 0 -960 269 -966 275 -5 6 10 88 38 213 10 45 16 82 12 81 -3 0 -71
-75 -150 -165 -119 -136 -148 -164 -165 -160 -12 3 -205 82 -431 175 -326 134
-410 172 -410 187 0 11 29 39 74 71 41 29 77 53 80 53 3 0 150 -30 326 -66z
m2323 -704 c246 -101 448 -184 450 -185 5 -4 -20 -110 -28 -118 -6 -7 -908
293 -940 313 -9 6 -2 38 26 125 33 99 39 113 42 84 l3 -35 447 -184z"/>
<path d="M787 5062 l5 -147 -36 -35 -37 -35 328 -66 c180 -36 331 -64 335 -60
8 7 80 202 76 206 -2 2 -147 62 -323 135 -176 72 -327 136 -337 141 -15 8 -16
-3 -11 -139z"/>
</g>
</svg>
