<?xml version="1.0" encoding="UTF-8"?>
<svg width="554px" height="139px" viewBox="0 0 554 139" version="1.1" xmlns="http://www.w3.org/2000/svg" xmlns:xlink="http://www.w3.org/1999/xlink">
    <defs>
        <path d="M61.4259252,111.845065 C60.8415609,110.564815 60.2757679,107.649877 61.4259252,104.952949 C62.0930651,103.388617 64.0354439,100.712744 67.2530617,96.9253299 C71.8063702,90.5740359 74.4536623,85.6560643 75.1949379,82.1714152 C76.3068514,76.9444416 78.1311289,74.7083537 78.1311289,68.2009097 C78.1311289,68.0866068 78.177799,67.5897815 78.4320779,67.2213103 C78.9042593,66.5370801 79.5458198,66.1759847 79.9272849,65.2802079 C80.3136044,64.3730314 80.7999517,62.9527103 80.7999517,62.5182722 C80.7999517,62.083834 79.4300893,64.1378105 78.9541208,64.5985912 C78.5562315,64.9837842 78.2141868,64.8872535 77.9279867,64.3089993 C77.2597887,59.2133311 76.5738675,54.965369 75.8702231,51.5651129 C75.7299504,50.8872665 75.5048554,49.8366207 75.1949379,48.4131756 L74.2617716,45.9837112 L73.6342252,44.3499169 C67.9825233,44.3596314 63.91309,43.4986216 61.4259252,41.7668877 C58.9387604,40.0351537 55.8377558,37.4786259 52.1229113,34.0973044 C49.2381542,39.1717257 46.6813619,42.5892632 44.4525345,44.3499169 C43.2040259,45.3361715 41.3330617,46.4639004 38.8396419,47.7331037 C38.541539,47.8848443 38.3026662,47.8779202 38.2932666,47.7331037 C38.283867,47.5882872 38.178326,47.8654092 38.8047847,47.1960722 C39.9641908,45.9573102 41.9396796,43.7698492 42.96607,41.7668877 C44.2298619,39.3006464 44.9132914,36.1613553 44.6006214,35.7395379 C44.5646523,35.6910126 44.515501,35.6784501 44.4525345,35.7070119 C44.2866268,35.7822683 41.471825,40.7941829 38.9128479,44.3499169 C37.2129281,46.711979 34.8469524,48.9234988 31.814921,50.9844763 C29.0862811,52.4893376 26.9832479,54.9419113 25.5058214,58.3421974 C24.0283948,61.7424835 23.5336007,67.9162542 24.021439,76.8635097 C24.7765634,85.2634184 25.7787517,91.0580034 27.0280041,94.2472648 C27.3509652,95.0717638 29.0422747,100.758116 31.814921,104.952949 C33.6067778,107.663912 35.4747619,110.586992 37.4188731,113.72219 C38.287461,114.94104 38.7854525,116.950034 38.9128479,119.74917 C38.9712884,121.033228 38.4732968,123.46156 37.4188731,127.034168 C37.1339057,125.485247 36.9040264,124.319241 36.7292353,123.536152 C35.9526674,120.057014 35.2655804,117.870314 35.0555575,118.398032 C34.7390971,119.193191 34.4996162,120.001799 34.3371148,120.823855 C33.7687835,123.698906 35.3734164,122.354902 34.3371148,127.39424 C33.646247,130.753798 32.055673,132.844641 29.5653927,133.666768 C25.5882413,136.397049 22.7470684,137.46705 21.0418742,136.876773 C19.9023347,136.482305 18.5770604,135.610067 17.3708202,134.534147 C16.5644094,133.81486 20.1098581,132.907195 21.6305027,130.846174 C22.6442657,129.472159 23.1070173,127.853103 23.0187576,125.989004 C23.1803919,124.816889 22.5214307,125.165277 21.0418742,127.034168 C18.087825,130.765555 14.096932,130.334851 14.0077146,130.098827 C13.4758976,128.691908 8.34846291,127.754435 7.30900663,122.750968 C6.42751231,118.507858 7.30900663,111.5965 7.30900663,109.498114 C7.30900663,107.930352 0.52459107,95.8991641 0.661515483,91.218318 C0.923967905,82.2462188 4.41298008,79.3478084 4.41298008,74.786067 C4.41298008,74.1167673 4.36381757,73.2081874 4.28404214,72.1320043 C4.25734838,71.7719012 5.63003265,71.3440961 6.62742606,70 C7.31737231,69.0702224 7.86956313,67.6870189 8.28399852,65.8503895 C5.67573979,68.8592306 4.342421,70.0463158 4.28404214,69.4116451 C3.98003089,66.1065609 3.19675983,59.9830262 3.077284,56.8411536 C2.79147409,49.3251708 6.31880484,44.549546 7.30900663,41.7668877 C9.12719994,36.6574132 14.7525492,23.4974581 15.6423988,21.5477378 C16.5322485,19.5980175 22.5861605,10.03782 29.5653927,5.99938674 C34.2182143,3.30709792 40.8630833,1.30730234 49.5,0 C53.7922764,0.818707935 56.8286043,1.48562614 58.6089839,2.00075463 C59.0411723,2.12580241 58.345432,4.68391009 59.9868543,7.81589137 C61.3688571,10.4528767 65.1243742,13.7449357 65.4585452,13.8588127 C65.8849022,14.0041043 62.2518065,9.85418182 61.4259252,7.00022788 C61.0653833,5.75432259 60.9221045,4.12944634 61.4259252,3.55383415 C61.8900849,3.02353438 62.9843319,3.49067145 63.1394584,3.55383415 C64.2213624,3.99435188 65.2162935,4.46002149 66.1242518,4.95084297 C72.0044683,8.1295536 77.1686053,11.8940269 82.8787814,19.3779183 C88.5889575,26.8618097 90.803557,30.7392906 93.1589161,36.9327311 C94.7291555,41.0616914 95.5507178,45.7456065 95.6236032,50.9844763 C94.2907631,58.677527 94.2907631,64.4163381 95.6236032,68.2009097 C97.6228633,73.877767 98.0451757,75.9390029 98.4386265,80.4687872 C98.7046654,83.5316827 98.7664894,84.7734273 98.4212576,86.3703774 C98.2559184,87.1351924 95.9979541,82.4729198 95.6236032,83.6397493 C95.374376,84.4165755 97.0431517,90.6322295 96.6739855,91.2843038 C95.330828,93.6567808 93.4756152,95.3009263 93.1589161,96.9253299 C92.7551724,98.9962002 95.1705313,103.398412 95.6236032,106.141037 C96.0766751,108.883662 97.6228633,114.22129 97.6228633,119.143205 C97.6228633,122.424481 96.9564433,125.673877 95.6236032,128.891393 C90.3198953,132.074976 85.4806777,132.941654 81.1059504,131.491427 C80.491548,131.287751 79.9639966,131.072739 79.5089265,130.846174 C79.3610209,130.772536 80.8529708,129.585435 81.7038052,127.034168 C82.6690833,124.139737 83.0120488,119.838661 82.8787814,119.74917 C82.4228221,119.442987 81.5401479,123.571294 80.1565588,125.989004 C78.8875437,128.206505 77.0985311,128.736226 76.9329642,128.388447 C75.9931753,126.414386 76.2507434,123.913139 73.6342252,120.823855 C71.6180578,118.443396 71.1003875,116.858789 69.4610018,115.803702 C69.3110614,115.707202 71.9713859,112.504346 72.9621017,109.498114 C73.8831564,106.703261 73.1421067,104.089483 72.9621017,104.014956 C72.6522201,103.886657 71.8507212,107.89045 70.3128459,110.638103 C69.1206023,112.768231 67.7506349,114.444433 66.1242518,114.664919 C64.4978686,114.885404 62.0102895,113.125314 61.4259252,111.845065 Z" id="path-1"></path>
    </defs>
    <g id="Website" stroke="none" stroke-width="1" fill="none" fill-rule="evenodd">
        <g id="Group-2" transform="translate(0.340530, 0.965832)">
            <path d="M152.357631,81.9521162 C152.549152,81.7671475 152.518531,81.4671703 152.549152,81.147437 C152.675757,79.8254739 153.064093,78.8918843 153.714158,78.3466683 C154.52145,77.669585 155.478481,77.1096891 156.585252,76.6669808 C157.692023,76.2242725 158.811814,75.6513558 159.944627,74.9482308 C161.077439,74.2451058 161.982387,72.9169808 162.65947,70.9638558 C164.248012,65.2607308 164.53447,59.5641162 163.518845,53.8740121 C162.50322,48.1839079 161.389939,42.9951058 160.179002,38.3076058 C158.968064,33.6201058 158.27796,29.6617725 158.108689,26.4326058 C157.939418,23.2034391 159.495408,21.18521 162.776658,20.3779183 L122.854783,20.3779183 C124.261033,21.2372933 125.270148,22.1422412 125.882127,23.0927621 C126.494106,24.0432829 126.897752,25.5341683 127.093064,27.5654183 C127.288377,29.5966683 127.359991,32.4156787 127.307908,36.0224496 C127.28476,37.6254588 127.2719,39.4818117 127.269328,41.5915082 L127.269328,43.2212825 C127.2719,45.4576508 127.28476,47.9473627 127.307908,50.6904183 C127.380645,57.2125088 127.419522,62.380185 127.424538,66.1934467 L127.424571,67.5418113 C127.417226,71.1637283 127.332766,73.9255035 127.171189,75.8271371 C127.001918,77.8193246 126.72197,79.1930225 126.331345,79.9482308 C125.94072,80.7034391 125.419887,81.4456266 124.768845,82.1749692 C136.677007,82.1749692 145.608129,82.1749692 151.56221,82.1749692 C151.87588,82.1749692 152.16611,82.1370849 152.357631,81.9521162 Z M143.870408,70.690664 C141.162075,70.690664 139.736293,68.6656787 139.593064,64.6161996 C139.449835,60.5667204 139.3652,56.0550016 139.339158,51.0810433 C139.290795,47.5505374 139.264886,44.3543509 139.261432,41.4924839 L139.261432,40.1953609 C139.263026,38.9219766 139.269403,37.7198082 139.280564,36.5888558 C139.319627,32.6305225 140.289679,30.7034391 142.19072,30.8076058 C143.805304,30.9117725 145.289679,33.0536996 146.643845,37.2333871 C147.998012,41.4130746 148.90296,45.9833871 149.358689,50.9443246 C149.814418,55.9052621 149.664679,60.4430225 148.90947,64.5576058 C148.154262,68.6721891 146.474575,70.71646 143.870408,70.690664 Z M201.175095,82.1747933 C201.175095,79.2581266 201.181606,76.34146 201.194627,73.4247933 C201.207648,70.5081266 201.227179,67.5784391 201.25322,64.6357308 C199.117804,64.6357308 196.988898,64.6292204 194.866502,64.6161996 C192.744106,64.6031787 190.62822,64.5836475 188.518845,64.5576058 C190.758429,66.1982308 191.891241,67.6956266 191.917283,69.0497933 C191.943325,70.40396 191.474575,71.4000537 190.511033,72.0380746 C189.547491,72.6760954 188.401658,72.8323454 187.073533,72.5068246 C185.745408,72.1813037 184.859991,71.1461475 184.417283,69.4013558 C183.505825,65.9378141 183.43421,62.9365121 184.202439,60.3974496 C184.970668,57.8583871 186.109991,55.9833871 187.620408,54.7724496 C189.130825,53.5615121 190.790981,53.1188037 192.600877,53.4443246 C194.410773,53.7698454 195.901658,55.0523975 197.073533,57.2919808 L197.073533,57.2919808 L197.073533,43.8935433 C194.130825,41.9925016 191.663377,41.6344287 189.671189,42.8193246 C187.679002,44.0042204 185.94072,45.9247933 184.456345,48.5810433 C183.701137,41.9143766 183.889939,37.0836475 185.022752,34.0888558 C186.155564,31.0940641 187.672491,29.4404183 189.573533,29.1279183 C191.474575,28.8154183 193.486293,29.5901579 195.608689,31.4521371 C197.731085,33.3141162 199.417283,35.7425016 200.667283,38.7372933 L200.667283,38.7372933 L200.667283,20.3779183 L200.667283,20.3779183 L168.28447,20.3779183 C169.326137,20.8987516 170.133429,21.4521371 170.706345,22.0380746 C171.279262,22.6240121 171.702439,23.8349496 171.975877,25.6708871 C172.249314,27.5068246 172.405564,30.2411996 172.444627,33.8740121 C172.483689,37.5068246 172.516241,42.6044808 172.542283,49.1669808 L172.542283,49.1669808 L172.542436,50.5862008 C172.542486,50.8192025 172.54255,51.0504367 172.542626,51.2799035 L172.543237,52.6354943 C172.54667,58.6402093 172.559373,63.3564339 172.581345,66.7841683 C172.607387,70.8466683 172.477179,73.8740121 172.19072,75.8661996 C171.904262,77.8583871 171.39645,79.1930225 170.667283,79.8701058 C169.938116,80.5471891 168.831345,81.3154183 167.34697,82.1747933 L167.34697,82.1747933 L201.175095,82.1747933 Z M236.956345,82.1747933 C236.956345,79.2581266 236.962856,76.34146 236.975877,73.4247933 C236.988898,70.5081266 237.008429,67.5784391 237.03447,64.6357308 C234.899054,64.6357308 232.770148,64.6292204 230.647752,64.6161996 C228.525356,64.6031787 226.40947,64.5836475 224.300095,64.5576058 C226.539679,66.1982308 227.672491,67.6956266 227.698533,69.0497933 C227.724575,70.40396 227.255825,71.4000537 226.292283,72.0380746 C225.328741,72.6760954 224.182908,72.8323454 222.854783,72.5068246 C221.526658,72.1813037 220.641241,71.1461475 220.198533,69.4013558 C219.287075,65.9378141 219.21546,62.9365121 219.983689,60.3974496 C220.751918,57.8583871 221.891241,55.9833871 223.401658,54.7724496 C224.912075,53.5615121 226.572231,53.1188037 228.382127,53.4443246 C230.192023,53.7698454 231.682908,55.0523975 232.854783,57.2919808 L232.854783,57.2919808 L232.854783,43.8935433 C229.912075,41.9925016 227.444627,41.6344287 225.452439,42.8193246 C223.460252,44.0042204 221.72197,45.9247933 220.237595,48.5810433 C219.482387,41.9143766 219.671189,37.0836475 220.804002,34.0888558 C221.936814,31.0940641 223.453741,29.4404183 225.354783,29.1279183 C227.255825,28.8154183 229.267543,29.5901579 231.389939,31.4521371 C233.512335,33.3141162 235.198533,35.7425016 236.448533,38.7372933 L236.448533,38.7372933 L236.448533,20.3779183 L236.448533,20.3779183 L204.06572,20.3779183 C205.107387,20.8987516 205.914679,21.4521371 206.487595,22.0380746 C207.060512,22.6240121 207.483689,23.8349496 207.757127,25.6708871 C208.030564,27.5068246 208.186814,30.2411996 208.225877,33.8740121 C208.264939,37.5068246 208.297491,42.6044808 208.323533,49.1669808 L208.323533,49.1669808 L208.324143,51.9630013 C208.324245,52.1889331 208.324359,52.4130974 208.324487,52.6354943 L208.325402,53.9486657 C208.329853,59.3318393 208.34225,63.6103402 208.362595,66.7841683 C208.388637,70.8466683 208.258429,73.8740121 207.97197,75.8661996 C207.685512,77.8583871 207.1777,79.1930225 206.448533,79.8701058 C205.719366,80.5471891 204.612595,81.3154183 203.12822,82.1747933 L203.12822,82.1747933 L236.956345,82.1747933 Z M254.988616,82.1747933 C257.629475,79.5965035 258.070541,76.8100452 256.311814,73.8154183 C253.673724,69.323478 255.042283,67.8193246 256.136033,65.4365121 C257.229783,63.0536996 259.169887,61.4911996 261.956345,60.7490121 C264.742804,60.0068246 267.737595,60.8987516 270.94072,63.4247933 C272.50322,60.9768766 273.785773,58.3271371 274.788377,55.4755746 C275.790981,52.6240121 276.331345,49.3232308 276.40947,45.5732308 C276.487595,42.4482308 276.038377,39.6487516 275.061814,37.1747933 C274.085252,34.700835 273.167283,32.4677621 272.307908,30.4755746 C271.448533,28.4833871 270.947231,26.6734912 270.804002,25.0458871 C270.660773,23.4182829 271.461554,21.8622933 273.206345,20.3779183 L238.90947,20.3779183 C240.289679,21.3675016 241.344366,22.12271 242.073533,22.6435433 C242.8027,23.1643766 243.323533,24.2646371 243.636033,25.9443246 C243.948533,27.6240121 244.137335,30.2932829 244.202439,33.9521371 C244.267543,37.6109912 244.339158,43.0732308 244.417283,50.3388558 C244.482387,56.3935433 244.515843,61.2908234 244.517652,65.0306961 L244.517478,65.9060433 C244.517088,66.3326058 244.516241,66.7425016 244.514939,67.1357308 C244.501918,71.0680225 244.358689,74.0107308 244.085252,75.9638558 C243.811814,77.9169808 243.375616,79.2385954 242.776658,79.9286996 C242.1777,80.6188037 241.318325,81.3675016 240.198533,82.1747933 L254.988616,82.1747933 Z M255.94072,56.7451058 C255.758429,48.8023975 255.634731,42.5003141 255.569627,37.8388558 C255.504523,33.1773975 256.305304,30.8596891 257.97197,30.8855138 C259.899054,30.9638558 261.429002,32.1422412 262.561814,34.4208871 C263.694627,36.6995329 264.339158,39.3492725 264.495408,42.3701058 C264.3652,44.6617725 263.466762,47.3180225 261.800095,50.3388558 C260.133429,53.3596891 258.180304,55.4951058 255.94072,56.7451058 Z M340.307908,82.1747933 C335.516241,79.8050016 332.514939,77.0185433 331.304002,73.8154183 C330.093064,70.6122933 330.03447,67.8193246 331.12822,65.4365121 C332.22197,63.0536996 334.162075,61.4911996 336.948533,60.7490121 C339.734991,60.0068246 342.729783,60.8987516 345.932908,63.4247933 C347.495408,60.9768766 348.77796,58.3271371 349.780564,55.4755746 C350.783168,52.6240121 351.323533,49.3232308 351.401658,45.5732308 C351.479783,42.4482308 351.030564,39.6487516 350.054002,37.1747933 C349.077439,34.700835 348.15947,32.4677621 347.300095,30.4755746 C346.44072,28.4833871 345.939418,26.6734912 345.796189,25.0458871 C345.65296,23.4182829 346.453741,21.8622933 348.198533,20.3779183 L348.198533,20.3779183 L313.901658,20.3779183 C315.281866,21.3675016 316.336554,22.12271 317.06572,22.6435433 C317.794887,23.1643766 318.31572,24.2646371 318.62822,25.9443246 C318.94072,27.6240121 319.129523,30.2932829 319.194627,33.9521371 C319.259731,37.6109912 319.331345,43.0732308 319.40947,50.3388558 C319.47197,56.1513558 319.505304,60.8971891 319.50947,64.5763558 L319.509666,65.9060433 C319.509275,66.3326058 319.508429,66.7425016 319.507127,67.1357308 C319.494106,71.0680225 319.350877,74.0107308 319.077439,75.9638558 C318.804002,77.9169808 318.367804,79.2385954 317.768845,79.9286996 C317.169887,80.6188037 316.310512,81.3675016 315.19072,82.1747933 L315.19072,82.1747933 L340.307908,82.1747933 Z M330.932908,56.7451058 C330.750616,48.8023975 330.626918,42.5003141 330.561814,37.8388558 C330.49671,33.1773975 331.297491,30.8596891 332.964158,30.8855138 C334.891241,30.9638558 336.421189,32.1422412 337.554002,34.4208871 C338.686814,36.6995329 339.331345,39.3492725 339.487595,42.3701058 C339.357387,44.6617725 338.45895,47.3180225 336.792283,50.3388558 C335.125616,53.3596891 333.172491,55.4951058 330.932908,56.7451058 Z M388.393845,82.1747933 C389.357387,79.9612516 390.366502,77.27896 391.421189,74.1279183 C392.475877,70.9768766 393.068325,67.7607308 393.198533,64.4794808 C393.172491,55.9898975 392.83395,49.1734912 392.182908,44.0302621 C391.531866,38.8870329 391.004523,34.7919808 390.600877,31.7451058 C390.197231,28.6982308 390.112595,26.3870329 390.34697,24.8115121 C390.581345,23.2359912 391.58395,21.7581266 393.354783,20.3779183 L375.34697,20.3779183 C377.013637,22.4872933 378.100877,25.3128141 378.608689,28.8544808 C379.116502,32.3961475 379.383429,39.1669808 379.40947,49.1669808 C379.409962,49.3561514 379.410337,49.5440079 379.410597,49.7305502 L379.410764,50.8340345 C379.400566,59.8983238 379.100656,65.6772746 378.511033,68.1708871 C377.886033,70.8141162 376.323533,72.0576058 373.823533,71.9013558 C371.167283,71.8232308 369.56572,70.4104704 369.018845,67.6630746 C368.47197,64.9156787 368.250616,58.4247933 368.354783,48.1904183 C368.432908,37.9560433 368.608689,30.9638558 368.882127,27.2138558 C369.155564,23.4638558 370.33395,21.18521 372.417283,20.3779183 L353.589158,20.3779183 C355.125616,21.34146 356.089158,22.5393766 356.479783,23.9716683 C356.870408,25.40396 356.987595,27.6565641 356.831345,30.7294808 C356.675095,33.8023975 356.382127,37.982085 355.952439,43.2685433 C355.522752,48.5550016 355.268845,55.5211475 355.19072,64.1669808 C355.216762,68.2294808 355.880825,71.8427621 357.182908,75.0068246 C358.484991,78.1708871 359.774054,80.56021 361.050095,82.1747933 L388.393845,82.1747933 Z M417.886033,82.1747933 C415.386033,81.0029183 413.973273,79.6552621 413.647752,78.1318246 C413.322231,76.6083871 413.133429,73.9456266 413.081345,70.1435433 C413.029262,66.34146 413.205043,63.6135954 413.608689,61.9599496 C414.012335,60.3063037 415.03447,59.3232308 416.675095,59.0107308 C417.37822,58.9326058 418.250616,60.0003141 419.292283,62.2138558 C420.33395,64.4273975 421.219366,66.9273975 421.948533,69.7138558 C422.6777,72.5003141 423.087856,75.1500537 423.179002,77.6630746 C423.270148,80.1760954 422.729783,81.6800016 421.557908,82.1747933 L421.557908,82.1747933 L437.261033,82.1747933 C434.917283,78.2685433 433.556606,73.52896 433.179002,67.9560433 C432.801398,62.3831266 430.581345,57.59146 426.518845,53.5810433 C432.37822,51.1331266 435.451137,47.4482308 435.737595,42.5263558 C435.81572,39.6878141 435.229783,37.2203662 433.979783,35.1240121 C432.729783,33.0276579 431.518845,31.1396371 430.34697,29.4599496 C429.175095,27.7802621 428.406866,26.2242725 428.042283,24.7919808 C427.6777,23.3596891 428.419887,21.888335 430.268845,20.3779183 L430.268845,20.3779183 L397.53447,20.3779183 C398.654262,21.4456266 399.461554,22.4482308 399.956345,23.3857308 C400.451137,24.3232308 400.776658,25.8076058 400.932908,27.8388558 C401.089158,29.8701058 401.160773,32.7607308 401.147752,36.5107308 C401.146405,36.8986618 401.145545,37.3021993 401.145174,37.7213432 L401.145081,38.5804395 C401.14731,42.100059 401.180753,46.6184894 401.245408,52.1357308 C401.323533,58.8544808 401.408168,64.0823454 401.499314,67.8193246 C401.59046,71.5563037 401.499314,74.388335 401.225877,76.3154183 C400.952439,78.2425016 400.386033,79.5510954 399.526658,80.2411996 C398.667283,80.9313037 397.339158,81.575835 395.542283,82.1747933 L395.542283,82.1747933 L417.886033,82.1747933 Z M412.964158,49.5576058 L412.96437,48.4743951 C412.967553,40.4792262 413.006545,35.3845672 413.081345,33.1904183 C413.15947,30.8987516 414.031866,29.7268766 415.698533,29.6747933 C416.766241,29.6747933 417.99671,30.7750537 419.389939,32.9755746 C420.783168,35.1760954 421.414679,37.3050016 421.28447,39.3622933 C421.180304,41.575835 420.262335,43.6266162 418.530564,45.5146371 C416.798793,47.4026579 414.943325,48.7503141 412.964158,49.5576058 L412.964158,49.5576058 Z M465.932908,82.1747933 C461.141241,79.8050016 458.139939,77.0185433 456.929002,73.8154183 C455.718064,70.6122933 455.65947,67.8193246 456.75322,65.4365121 C457.84697,63.0536996 459.787075,61.4911996 462.573533,60.7490121 C465.359991,60.0068246 468.354783,60.8987516 471.557908,63.4247933 C473.120408,60.9768766 474.40296,58.3271371 475.405564,55.4755746 C476.408168,52.6240121 476.948533,49.3232308 477.026658,45.5732308 C477.104783,42.4482308 476.655564,39.6487516 475.679002,37.1747933 C474.702439,34.700835 473.78447,32.4677621 472.925095,30.4755746 C472.06572,28.4833871 471.564418,26.6734912 471.421189,25.0458871 C471.27796,23.4182829 472.078741,21.8622933 473.823533,20.3779183 L473.823533,20.3779183 L439.526658,20.3779183 C440.906866,21.3675016 441.961554,22.12271 442.69072,22.6435433 C443.419887,23.1643766 443.94072,24.2646371 444.25322,25.9443246 C444.56572,27.6240121 444.754523,30.2932829 444.819627,33.9521371 C444.884731,37.6109912 444.956345,43.0732308 445.03447,50.3388558 C445.099575,56.3935433 445.133031,61.2908234 445.134839,65.0306961 L445.134666,65.9060433 C445.134275,66.3326058 445.133429,66.7425016 445.132127,67.1357308 C445.119106,71.0680225 444.975877,74.0107308 444.702439,75.9638558 C444.429002,77.9169808 443.992804,79.2385954 443.393845,79.9286996 C442.794887,80.6188037 441.935512,81.3675016 440.81572,82.1747933 L440.81572,82.1747933 L465.932908,82.1747933 Z M456.557908,56.7451058 C456.375616,48.8023975 456.251918,42.5003141 456.186814,37.8388558 C456.12171,33.1773975 456.922491,30.8596891 458.589158,30.8855138 C460.516241,30.9638558 462.046189,32.1422412 463.179002,34.4208871 C464.311814,36.6995329 464.956345,39.3492725 465.112595,42.3701058 C464.982387,44.6617725 464.08395,47.3180225 462.417283,50.3388558 C460.750616,53.3596891 458.797491,55.4951058 456.557908,56.7451058 Z M514.761033,82.1747933 C519.422491,63.7112516 514.39645,54.5706266 499.682908,54.7529183 L499.682908,54.7529183 L499.682908,65.1435433 L499.682908,65.1435433 L501.401658,65.1435433 C501.4277,63.0081266 502.007127,62.0836475 503.139939,62.3701058 C504.272752,62.6565641 505.19072,63.4638558 505.893845,64.7919808 C506.59697,66.1201058 506.714158,67.6044808 506.245408,69.2451058 C505.776658,70.8857308 503.979783,71.9794808 500.854783,72.5263558 C499.370408,72.5263558 498.283168,72.1943246 497.593064,71.5302621 C496.90296,70.8661996 496.43421,69.2255746 496.186814,66.6083871 C495.939418,63.9911996 495.841762,60.0719287 495.893845,54.8505746 C495.945929,49.6292204 495.984991,42.4482308 496.011033,33.3076058 C495.932908,30.5732308 497.098273,28.9586475 499.507127,28.4638558 C501.915981,27.9690641 503.979783,29.77896 505.698533,33.8935433 L505.698533,33.8935433 L505.698533,20.3779183 L505.698533,20.3779183 L479.214158,20.3779183 C480.516241,21.34146 481.486293,22.1096891 482.124314,22.6826058 C482.762335,23.2555225 483.205043,24.4273975 483.452439,26.1982308 C483.699835,27.9690641 483.810512,30.7229704 483.78447,34.4599496 C483.762498,37.6130257 483.749795,42.0314179 483.746362,47.7151261 L483.745561,49.6565591 C483.745459,50.0984027 483.745408,50.5471891 483.745408,51.0029183 C483.723567,57.1403511 483.710884,62.0916551 483.707362,65.8568302 L483.706508,67.1127851 C483.7064,67.3813585 483.706345,67.6429133 483.706345,67.8974496 L483.705644,68.4063328 C483.695355,72.096176 483.571891,74.8627462 483.335252,76.7060433 C483.087856,78.6331266 482.651658,79.8896371 482.026658,80.4755746 C481.401658,81.0615121 480.464158,81.6279183 479.214158,82.1747933 L479.214158,82.1747933 L514.761033,82.1747933 Z M552.69072,82.1747933 C552.69072,79.2581266 552.697231,76.34146 552.710252,73.4247933 C552.723273,70.5081266 552.742804,67.5784391 552.768845,64.6357308 C550.633429,64.6357308 548.504523,64.6292204 546.382127,64.6161996 C544.259731,64.6031787 542.143845,64.5836475 540.03447,64.5576058 C542.274054,66.1982308 543.406866,67.6956266 543.432908,69.0497933 C543.45895,70.40396 542.9902,71.4000537 542.026658,72.0380746 C541.063116,72.6760954 539.917283,72.8323454 538.589158,72.5068246 C537.261033,72.1813037 536.375616,71.1461475 535.932908,69.4013558 C535.02145,65.9378141 534.949835,62.9365121 535.718064,60.3974496 C536.486293,57.8583871 537.625616,55.9833871 539.136033,54.7724496 C540.64645,53.5615121 542.306606,53.1188037 544.116502,53.4443246 C545.926398,53.7698454 547.417283,55.0523975 548.589158,57.2919808 L548.589158,57.2919808 L548.589158,43.8935433 C545.64645,41.9925016 543.179002,41.6344287 541.186814,42.8193246 C539.194627,44.0042204 537.456345,45.9247933 535.97197,48.5810433 C535.216762,41.9143766 535.405564,37.0836475 536.538377,34.0888558 C537.671189,31.0940641 539.188116,29.4404183 541.089158,29.1279183 C542.9902,28.8154183 545.001918,29.5901579 547.124314,31.4521371 C549.24671,33.3141162 550.932908,35.7425016 552.182908,38.7372933 L552.182908,38.7372933 L552.182908,20.3779183 L552.182908,20.3779183 L519.800095,20.3779183 C520.841762,20.8987516 521.649054,21.4521371 522.22197,22.0380746 C522.794887,22.6240121 523.218064,23.8349496 523.491502,25.6708871 C523.764939,27.5068246 523.921189,30.2411996 523.960252,33.8740121 C523.999314,37.5068246 524.031866,42.6044808 524.057908,49.1669808 L524.057908,49.1669808 L524.058251,51.2799035 C524.058328,51.5093702 524.058417,51.7370695 524.058518,51.9630013 L524.059281,53.2973824 C524.063249,58.9877918 524.075812,63.4833871 524.09697,66.7841683 C524.123012,70.8466683 523.992804,73.8740121 523.706345,75.8661996 C523.419887,77.8583871 522.912075,79.1930225 522.182908,79.8701058 C521.453741,80.5471891 520.34697,81.3154183 518.862595,82.1747933 L518.862595,82.1747933 L552.69072,82.1747933 Z" id="DeepPurple" fill="#D7548A" fill-rule="nonzero"></path>
            <text id="Color-Theme" font-family="Fascinate-Regular, Fascinate" font-size="34" font-weight="800" fill="#EC6F6F">
                <tspan x="185.65947" y="122.034168">Color Theme</tspan>
            </text>
            <g id="Group">
                <mask id="mask-2" fill="white">
                    <use xlink:href="#path-1"></use>
                </mask>
                <use id="Path-3" fill="#B058A0" xlink:href="#path-1"></use>
            </g>
            <path d="M64.4810968,84.9561699 C63.8530384,84.9561699 63.4215259,84.6189098 63.1865593,83.9443898 C62.9478022,82.5708934 62.5390552,81.6274244 61.9603183,81.1139826 C61.3815814,80.6005408 60.312879,80.0661015 58.7542109,79.5106649 C56.5256308,79.2068312 55.0610527,79.0549143 54.3604768,79.0549143 C53.3096129,79.0549143 50.8860335,79.0549143 49.0511492,79.0549143 C47.8278931,79.0549143 46.0879485,79.5308523 43.8313154,80.4827281 C42.5535485,81.6197589 41.7471357,82.5859393 41.4120769,83.3812692 C40.9094886,84.5742641 40.2703303,86 39.2294164,86 C38.1885026,86 37.01234,84.9561699 36.4426294,83.3812692 C35.8729188,81.8063685 36.0159935,81.6180185 36.0159935,79.0549143 C36.0159935,76.4918102 38.1608086,75.3686397 39.0746014,74.4776671 C39.9883941,73.5866946 42.6698008,71.5613707 43.8313154,70.791208 C44.6056584,70.2777662 45.9697405,69.7528244 47.9235618,69.2163826 C48.7351269,69.5048928 49.405754,69.6491479 49.9354429,69.6491479 C50.4651318,69.6491479 51.3523804,69.5048928 52.5971888,69.2163826 C53.2420402,68.9278725 54.1546727,68.9278725 55.3350863,69.2163826 C56.5154999,69.5048928 57.6552081,70.0298346 58.7542109,70.791208 C61.0060645,71.834121 62.3077526,72.552756 62.6592753,72.9471129 C63.1865593,73.5386482 65.9213783,75.4836204 66.3782791,76.4918102 C66.8351799,77.5 67.0973206,80.2682849 66.9662503,81.1139826 C66.8788701,81.677781 66.4938358,82.62125 65.8111476,83.9443898 C65.5525055,84.6189098 65.1091552,84.9561699 64.4810968,84.9561699 Z" id="Path-2" fill="#B058A0"></path>
            <circle id="Oval" fill="#8179CD" cx="297.15947" cy="44.5341683" r="10.5"></circle>
            <circle id="Oval" stroke="#302231" stroke-width="3" fill="#86B2C8" cx="297.15947" cy="59.5341683" r="12"></circle>
        </g>
    </g>
</svg>